<svg width="24" height="24" viewBox="0 0 24 24" fill="none" xmlns="http://www.w3.org/2000/svg">
<path d="M17.3334 4.00006L11.3334 4.00006C10.9648 4.00006 10.6668 4.29872 10.6668 4.66672C10.6668 5.03472 10.9648 5.33338 11.3334 5.33338L17.3334 5.33338C17.4527 5.33338 17.568 5.34938 17.6787 5.37871L4.1955 18.8619C3.93483 19.1226 3.93483 19.5439 4.1955 19.8046C4.3255 19.9346 4.49616 19.9999 4.66683 19.9999C4.83749 19.9999 5.00816 19.9346 5.13815 19.8046L18.6213 6.32137C18.6507 6.43137 18.6667 6.54737 18.6667 6.6667V12.6666C18.6667 13.0346 18.9647 13.3333 19.3333 13.3333C19.702 13.3333 20 13.0346 20 12.6666V6.6667C20 5.19605 18.804 4.00006 17.3334 4.00006Z" fill="white"/>
</svg>
