<svg width="24" height="25" viewBox="0 0 24 25" fill="none" xmlns="http://www.w3.org/2000/svg">
<g clip-path="url(#clip0_306_3913)">
<path d="M18.214 9.8065C18.601 10.2005 18.595 10.8335 18.2 11.2205L13.774 15.5655C12.991 16.3335 11.983 16.7165 10.974 16.7165C9.976 16.7165 8.978 16.3405 8.198 15.5875L6.299 13.7205C5.905 13.3335 5.9 12.7005 6.287 12.3065C6.673 11.9115 7.308 11.9065 7.701 12.2945L9.594 14.1555C10.37 14.9055 11.595 14.9015 12.375 14.1375L16.8 9.7935C17.193 9.4055 17.824 9.4125 18.214 9.8065ZM24 12.7085C24 19.3255 18.617 24.7085 12 24.7085C5.383 24.7085 0 19.3255 0 12.7085C0 6.0915 5.383 0.708496 12 0.708496C18.617 0.708496 24 6.0915 24 12.7085ZM22 12.7085C22 7.1945 17.514 2.7085 12 2.7085C6.486 2.7085 2 7.1945 2 12.7085C2 18.2225 6.486 22.7085 12 22.7085C17.514 22.7085 22 18.2225 22 12.7085Z" fill="#1C1C1C"/>
</g>
<defs>
<clipPath id="clip0_306_3913">
<rect width="24" height="24" fill="white" transform="translate(0 0.708496)"/>
</clipPath>
</defs>
</svg>
