<svg width="194" height="56" viewBox="0 0 194 56" fill="none" xmlns="http://www.w3.org/2000/svg">
<g clip-path="url(#clip0_2071_219)">
<path d="M63.8601 35.388H75.8121V31.788H68.1081V18.228H63.8601V35.388Z" fill="#A7A7A7"/>
<path d="M82.8933 32.988C81.1893 32.988 80.3013 31.5 80.3013 29.268C80.3013 27.036 81.1893 25.524 82.8933 25.524C84.5973 25.524 85.5093 27.036 85.5093 29.268C85.5093 31.5 84.5973 32.988 82.8933 32.988ZM82.9173 35.772C86.8773 35.772 89.4693 32.964 89.4693 29.268C89.4693 25.572 86.8773 22.764 82.9173 22.764C78.9813 22.764 76.3413 25.572 76.3413 29.268C76.3413 32.964 78.9813 35.772 82.9173 35.772Z" fill="#A7A7A7"/>
<path d="M96.3238 39.636C98.1478 39.636 99.7558 39.228 100.836 38.268C101.82 37.38 102.468 36.036 102.468 34.188V23.1H98.7238V24.42H98.6758C97.9558 23.388 96.8518 22.74 95.2198 22.74C92.1718 22.74 90.0598 25.284 90.0598 28.884C90.0598 32.652 92.6278 34.716 95.3878 34.716C96.8758 34.716 97.8118 34.116 98.5318 33.3H98.6278V34.524C98.6278 36.012 97.9318 36.876 96.2758 36.876C94.9798 36.876 94.3318 36.324 94.1158 35.676H90.3238C90.7078 38.244 92.9398 39.636 96.3238 39.636ZM96.2998 31.812C94.8358 31.812 93.8758 30.612 93.8758 28.764C93.8758 26.892 94.8358 25.692 96.2998 25.692C97.9318 25.692 98.7958 27.084 98.7958 28.74C98.7958 30.468 98.0038 31.812 96.2998 31.812Z" fill="#A7A7A7"/>
<path d="M110.166 32.988C108.462 32.988 107.574 31.5 107.574 29.268C107.574 27.036 108.462 25.524 110.166 25.524C111.87 25.524 112.782 27.036 112.782 29.268C112.782 31.5 111.87 32.988 110.166 32.988ZM110.19 35.772C114.15 35.772 116.742 32.964 116.742 29.268C116.742 25.572 114.15 22.764 110.19 22.764C106.254 22.764 103.614 25.572 103.614 29.268C103.614 32.964 106.254 35.772 110.19 35.772Z" fill="#A7A7A7"/>
<path d="M117.884 35.388H121.796V23.1H117.884V35.388ZM117.884 21.396H121.796V18.228H117.884V21.396Z" fill="#A7A7A7"/>
<path d="M123.494 39.444H127.406V34.116H127.454C128.222 35.148 129.35 35.772 130.934 35.772C134.15 35.772 136.286 33.228 136.286 29.244C136.286 25.548 134.294 22.74 131.03 22.74C129.35 22.74 128.15 23.484 127.31 24.588H127.238V23.1H123.494V39.444ZM129.926 32.748C128.246 32.748 127.286 31.38 127.286 29.388C127.286 27.396 128.15 25.884 129.854 25.884C131.534 25.884 132.326 27.276 132.326 29.388C132.326 31.476 131.414 32.748 129.926 32.748Z" fill="#A7A7A7"/>
<path d="M142.655 35.772C145.871 35.772 148.247 34.38 148.247 31.692C148.247 28.548 145.703 27.996 143.543 27.636C141.983 27.348 140.591 27.228 140.591 26.364C140.591 25.596 141.335 25.236 142.295 25.236C143.375 25.236 144.119 25.572 144.263 26.676H147.863C147.671 24.252 145.799 22.74 142.319 22.74C139.415 22.74 137.015 24.084 137.015 26.676C137.015 29.556 139.295 30.132 141.431 30.492C143.063 30.78 144.551 30.9 144.551 32.004C144.551 32.796 143.807 33.228 142.631 33.228C141.335 33.228 140.519 32.628 140.375 31.404H136.679C136.799 34.116 139.055 35.772 142.655 35.772Z" fill="#A7A7A7"/>
<path d="M153.561 35.748C155.265 35.748 156.345 35.076 157.233 33.876H157.305V35.388H161.049V23.1H157.137V29.964C157.137 31.428 156.321 32.436 154.977 32.436C153.729 32.436 153.129 31.692 153.129 30.348V23.1H149.241V31.164C149.241 33.9 150.729 35.748 153.561 35.748Z" fill="#A7A7A7"/>
<path d="M162.75 35.388H166.662V28.5C166.662 27.036 167.382 26.004 168.606 26.004C169.782 26.004 170.334 26.772 170.334 28.092V35.388H174.246V28.5C174.246 27.036 174.942 26.004 176.19 26.004C177.366 26.004 177.918 26.772 177.918 28.092V35.388H181.83V27.396C181.83 24.636 180.438 22.74 177.654 22.74C176.07 22.74 174.75 23.412 173.79 24.9H173.742C173.118 23.58 171.894 22.74 170.286 22.74C168.51 22.74 167.334 23.58 166.566 24.852H166.494V23.1H162.75V35.388Z" fill="#A7A7A7"/>
<path fill-rule="evenodd" clip-rule="evenodd" d="M32.6841 47.388C43.7298 47.388 52.6841 38.4337 52.6841 27.388C52.6841 16.3423 43.7298 7.38803 32.6841 7.38803C21.6384 7.38803 12.6841 16.3423 12.6841 27.388C12.6841 38.4337 21.6384 47.388 32.6841 47.388ZM38.9234 16.7049C39.2271 15.6261 38.1802 14.9882 37.2241 15.6693L23.8772 25.1776C22.8403 25.9163 23.0034 27.388 24.1222 27.388H27.6368V27.3608H34.4866L28.9053 29.3301L26.4448 38.0712C26.1411 39.15 27.1879 39.7879 28.1441 39.1067L41.491 29.5985C42.5279 28.8598 42.3647 27.388 41.246 27.388H35.9162L38.9234 16.7049Z" fill="#A7A7A7"/>
</g>
<defs>
<clipPath id="clip0_2071_219">
<rect width="170" height="41" fill="white" transform="translate(12 7.25)"/>
</clipPath>
</defs>
</svg>
