<svg width="24" height="24" viewBox="0 0 24 24" fill="none" xmlns="http://www.w3.org/2000/svg">
<path d="M18.7098 8.21004C18.6169 8.11632 18.5063 8.04192 18.3844 7.99115C18.2625 7.94038 18.1318 7.91425 17.9998 7.91425C17.8678 7.91425 17.7371 7.94038 17.6152 7.99115C17.4934 8.04192 17.3828 8.11632 17.2898 8.21004L12.7098 12.79C12.6169 12.8838 12.5063 12.9582 12.3844 13.0089C12.2625 13.0597 12.1318 13.0858 11.9998 13.0858C11.8678 13.0858 11.7371 13.0597 11.6152 13.0089C11.4934 12.9582 11.3828 12.8838 11.2898 12.79L6.70982 8.21004C6.61685 8.11632 6.50625 8.04192 6.38439 7.99115C6.26253 7.94038 6.13183 7.91425 5.99982 7.91425C5.8678 7.91425 5.7371 7.94038 5.61524 7.99115C5.49338 8.04192 5.38278 8.11632 5.28982 8.21004C5.10356 8.39741 4.99902 8.65086 4.99902 8.91504C4.99902 9.17923 5.10356 9.43268 5.28982 9.62004L9.87982 14.21C10.4423 14.7718 11.2048 15.0874 11.9998 15.0874C12.7948 15.0874 13.5573 14.7718 14.1198 14.21L18.7098 9.62004C18.8961 9.43268 19.0006 9.17923 19.0006 8.91504C19.0006 8.65086 18.8961 8.39741 18.7098 8.21004Z" fill="#1C1C1C"/>
</svg>
