<svg width="24" height="25" viewBox="0 0 24 25" fill="none" xmlns="http://www.w3.org/2000/svg">
<g clip-path="url(#clip0_2307_924)">
<path d="M9.87823 18.9921C10.1568 19.2709 10.4876 19.492 10.8517 19.6429C11.2158 19.7938 11.6061 19.8715 12.0002 19.8715C12.3944 19.8715 12.7846 19.7938 13.1487 19.6429C13.5128 19.492 13.8436 19.2709 14.1222 18.9921L17.3332 15.7811C17.5054 15.5907 17.5977 15.3414 17.5911 15.0848C17.5846 14.8282 17.4795 14.5839 17.2978 14.4026C17.1161 14.2213 16.8716 14.1168 16.615 14.1107C16.3584 14.1047 16.1093 14.1976 15.9192 14.3701L12.9932 17.2971L13.0002 1.87012C13.0002 1.6049 12.8949 1.35055 12.7073 1.16301C12.5198 0.975474 12.2654 0.870117 12.0002 0.870117V0.870117C11.735 0.870117 11.4807 0.975474 11.2931 1.16301C11.1056 1.35055 11.0002 1.6049 11.0002 1.87012L10.9912 17.2781L8.08123 14.3701C7.89359 14.1826 7.63914 14.0773 7.37387 14.0774C7.1086 14.0775 6.85423 14.183 6.66673 14.3706C6.47922 14.5583 6.37393 14.8127 6.37402 15.078C6.37412 15.3432 6.47959 15.5976 6.66723 15.7851L9.87823 18.9921Z" fill="#1C1C1C"/>
<path d="M23 16.8701C22.7348 16.8701 22.4804 16.9755 22.2929 17.163C22.1054 17.3505 22 17.6049 22 17.8701V21.8701C22 22.1353 21.8946 22.3897 21.7071 22.5772C21.5196 22.7648 21.2652 22.8701 21 22.8701H3C2.73478 22.8701 2.48043 22.7648 2.29289 22.5772C2.10536 22.3897 2 22.1353 2 21.8701L2 17.8701C2 17.6049 1.89464 17.3505 1.70711 17.163C1.51957 16.9755 1.26522 16.8701 1 16.8701C0.734784 16.8701 0.48043 16.9755 0.292893 17.163C0.105357 17.3505 0 17.6049 0 17.8701L0 21.8701C0 22.6658 0.31607 23.4288 0.87868 23.9914C1.44129 24.554 2.20435 24.8701 3 24.8701H21C21.7956 24.8701 22.5587 24.554 23.1213 23.9914C23.6839 23.4288 24 22.6658 24 21.8701V17.8701C24 17.6049 23.8946 17.3505 23.7071 17.163C23.5196 16.9755 23.2652 16.8701 23 16.8701Z" fill="#1C1C1C"/>
</g>
<defs>
<clipPath id="clip0_2307_924">
<rect width="24" height="23.9998" fill="white" transform="translate(0 0.870117)"/>
</clipPath>
</defs>
</svg>
