<svg width="22" height="12" viewBox="0 0 22 12" fill="none" xmlns="http://www.w3.org/2000/svg">
<path d="M14.18 9.80844L21.065 2.92344C21.3444 2.6424 21.5012 2.26222 21.5012 1.86594C21.5012 1.46966 21.3444 1.08949 21.065 0.808443C20.9256 0.667851 20.7597 0.55626 20.5769 0.480107C20.3941 0.403954 20.198 0.364746 20 0.364746C19.802 0.364746 19.606 0.403954 19.4232 0.480107C19.2404 0.55626 19.0745 0.667851 18.935 0.808443L12.065 7.70844C11.9256 7.84904 11.7597 7.96063 11.5769 8.03678C11.3941 8.11293 11.198 8.15214 11 8.15214C10.802 8.15214 10.606 8.11293 10.4232 8.03678C10.2404 7.96063 10.0745 7.84904 9.93503 7.70844L3.06503 0.808443C2.78456 0.525987 2.40338 0.366515 2.00533 0.365109C1.60729 0.363702 1.22499 0.520477 0.94253 0.800944C0.660074 1.08141 0.500601 1.46259 0.499195 1.86064C0.497787 2.25869 0.654566 2.64099 0.935032 2.92344L7.82003 9.80844C8.66378 10.6511 9.80753 11.1245 11 11.1245C12.1925 11.1245 13.3363 10.6511 14.18 9.80844Z" fill="#1C1C1C"/>
</svg>
