<svg width="1760" height="164" viewBox="0 0 1760 164" fill="none" xmlns="http://www.w3.org/2000/svg">
<path d="M846.523 0.708984C856.034 0.708984 862.647 9.6388 859.532 18.203L783.173 226.46C781.26 231.735 776.013 235.286 770.164 235.286C760.653 235.286 754.04 226.356 757.155 217.792L833.514 9.53434C835.427 4.26002 840.674 0.708984 846.523 0.708984Z" fill="white"/>
<path d="M116.055 229.072C107.365 237.375 93.2624 237.375 84.5716 229.072L6.51811 154.5C-2.1727 146.197 -2.1727 132.724 6.51811 124.421C15.2089 116.118 29.311 116.118 38.0019 124.421L116.055 198.992C124.746 207.295 124.746 220.768 116.055 229.072Z" fill="url(#paint0_linear_307_4193)"/>
<path d="M38.0019 154.448L116.055 79.877C124.746 71.5738 124.746 58.1008 116.055 49.7977C107.365 41.4945 93.2624 41.4945 84.5716 49.7977L6.51811 124.369C-2.1727 132.672 -2.1727 146.145 6.51811 154.448L38.3301 184.841C34.1214 180.977 31.4977 175.546 31.4977 169.488C31.4977 163.43 33.9571 158.313 38.0019 154.448Z" fill="white"/>
<path d="M1643.94 229.072C1652.64 237.375 1666.74 237.375 1675.43 229.072L1753.48 154.5C1762.17 146.197 1762.17 132.724 1753.48 124.421C1744.79 116.118 1730.69 116.118 1722 124.421L1643.94 198.992C1635.25 207.295 1635.25 220.768 1643.94 229.072Z" fill="url(#paint1_linear_307_4193)"/>
<path d="M1722 154.448L1643.94 79.877C1635.25 71.5738 1635.25 58.1008 1643.94 49.7977C1652.64 41.4945 1666.74 41.4945 1675.43 49.7977L1753.48 124.369C1762.17 132.672 1762.17 146.145 1753.48 154.448L1721.67 184.841C1725.88 180.977 1728.5 175.546 1728.5 169.488C1728.5 163.639 1726.04 158.313 1722 154.448Z" fill="white"/>
<path d="M582.791 34.078V187.712C582.791 196.328 575.521 203.274 566.503 203.274H556.883C553.931 203.274 551.471 200.976 551.471 198.104C551.471 193.874 546.388 191.42 542.889 193.979C532.723 201.342 519.878 204.997 505.339 204.997C464.945 204.997 434.938 178.103 434.938 136.744C434.938 95.3854 464.891 68.7527 505.339 68.7527C519.113 68.7527 531.63 72.0948 541.687 79.1447C545.24 81.5991 550.214 79.1447 550.214 74.967V34.0258C550.214 25.4093 557.484 18.4639 566.503 18.4639C575.521 18.4639 582.791 25.4093 582.791 34.0258V34.078ZM550.706 136.797C550.706 111.417 532.723 95.2287 509.275 95.2287C485.826 95.2287 467.842 111.417 467.842 136.797C467.842 162.176 485.826 178.364 509.275 178.364C532.723 178.364 550.706 162.176 550.706 136.797Z" fill="white"/>
<path d="M746.713 146.771H646.633C650.568 166.198 667.512 178.626 691.726 178.626C702.877 178.626 712.333 176.224 720.422 171.315C726.162 167.816 733.759 168.809 738.241 173.717C743.652 179.671 742.395 188.757 735.562 193.248C723.756 200.977 708.561 204.998 690.961 204.998C644.282 204.998 614.055 176.381 614.055 136.745C614.055 98.7803 647.234 68.3355 686.971 68.7533C727.146 69.171 756.333 96.2215 756.333 137.476C756.333 137.476 756.333 137.476 756.333 137.528C756.333 142.594 751.96 146.667 746.658 146.667L746.713 146.771ZM646.414 126.092H719.985C722.936 126.092 725.068 123.429 724.303 120.661C719.766 104.472 705.336 93.7149 686.042 93.7149C664.943 93.7149 649.529 106.666 646.414 126.092Z" fill="white"/>
<path d="M222.422 183.953C195.038 183.953 173.174 161.237 176.345 134.447C178.695 114.708 195.147 98.5192 215.754 95.7515C225.647 94.446 235.048 96.1171 243.083 99.9292C251.938 104.159 262.651 101.287 267.571 93.1405C262.433 90.5294 257.35 87.814 252.266 85.0985C228.326 72.4088 199.247 75.1765 178.312 92.2005C157.815 108.911 150.327 136.588 159.728 161.028C169.129 185.519 193.453 201.656 220.728 201.603C232.644 201.603 243.63 198.47 253.961 192.778C257.131 191.055 260.301 189.331 263.471 187.713C261.121 179.305 251.282 175.389 243.083 179.253C236.852 182.229 229.802 183.9 222.368 183.9L222.422 183.953Z" fill="white"/>
<path d="M399.572 89.6398C379.294 75.3313 351.964 73.9213 329.554 84.9922C329.445 84.9922 329.39 85.0966 329.281 85.1488C321.464 89.0132 313.867 93.3997 305.996 97.1597C296.43 101.755 285.171 101.703 275.606 97.1597C273.693 96.2719 271.233 95.123 269.32 94.183C269.32 94.183 269.21 94.1309 269.156 94.0786L269.32 94.2353C269.265 94.9664 269.21 95.6974 269.21 96.4808C269.21 110.633 279.541 122.487 293.425 125.568C294.135 125.725 294.845 125.829 295.556 125.933C295.774 125.933 295.993 125.986 296.212 126.038C296.758 126.09 297.305 126.142 297.906 126.247C298.781 126.299 299.601 126.351 300.475 126.351C300.584 126.351 300.694 126.351 300.858 126.351C306.871 126.56 310.915 125.098 310.915 125.098C312.391 124.628 313.867 124.158 315.288 123.583C324.635 119.928 333.489 114.915 342.344 110.11C350.816 105.515 359.781 103.896 369.182 106.142C383.776 109.588 393.122 118.727 396.019 132.722C396.511 135.02 396.675 137.265 396.73 139.459C396.675 141.652 396.457 143.897 396.019 146.195C393.122 160.19 383.831 169.277 369.182 172.776C359.781 175.021 350.871 173.402 342.344 168.807C333.489 164.002 324.69 158.989 315.288 155.334C313.867 154.759 312.391 154.289 310.915 153.819C310.915 153.819 306.816 152.357 300.858 152.566C300.858 152.566 300.639 152.566 300.475 152.566C299.601 152.566 298.726 152.618 297.906 152.671C297.36 152.723 296.813 152.775 296.212 152.879C295.993 152.879 295.774 152.932 295.556 152.984C294.845 153.088 294.135 153.245 293.425 153.349C279.541 156.378 269.21 168.232 269.21 182.436C269.21 183.168 269.265 183.951 269.32 184.682L269.156 184.839C269.156 184.839 269.265 184.786 269.32 184.734C271.233 183.794 273.693 182.645 275.606 181.758C285.171 177.214 296.43 177.162 305.996 181.758C313.867 185.518 321.464 189.904 329.281 193.768C329.39 193.768 329.445 193.873 329.554 193.925C351.964 204.944 379.294 203.586 399.572 189.277C417.391 176.692 426.191 159.72 425.7 139.511C426.191 119.301 417.391 102.33 399.572 89.7443V89.6398Z" fill="white"/>
<path d="M860.351 136.798C860.351 96.9538 891.616 68.8066 935.671 68.8066C955.403 68.8066 972.293 74.4987 984.099 85.3607C991.041 91.7316 989.783 102.646 981.475 107.294L980.711 107.711C974.971 110.897 967.92 109.748 963.11 105.361C955.403 98.4159 945.783 95.1782 935.453 95.1782C911.457 95.1782 893.201 111.106 893.201 136.746C893.201 162.387 911.457 178.314 935.453 178.314C945.838 178.314 955.457 175.076 963.11 168.131C967.92 163.744 974.971 162.596 980.711 165.781L981.421 166.199C989.729 170.846 990.986 181.708 984.099 188.079C972.293 198.994 955.458 204.947 935.671 204.947C891.616 204.947 860.351 176.538 860.351 136.694V136.798Z" fill="white"/>
<path d="M1009.68 136.798C1009.68 96.9538 1040.94 68.8066 1083.69 68.8066C1126.43 68.8066 1157.97 96.9538 1157.97 136.798C1157.97 176.643 1126.92 205.051 1083.69 205.051C1040.45 205.051 1009.68 176.643 1009.68 136.798ZM1125.17 136.798C1125.17 111.419 1107.47 95.2305 1083.74 95.2305C1060.02 95.2305 1042.58 111.419 1042.58 136.798C1042.58 162.178 1060.29 178.366 1083.74 178.366C1107.19 178.366 1125.17 162.178 1125.17 136.798Z" fill="white"/>
<path d="M1326.43 127.085V187.714C1326.43 196.33 1319.16 203.276 1310.14 203.276C1301.12 203.276 1293.85 196.33 1293.85 187.714V131.054C1293.85 107.398 1281.61 95.9616 1260.73 95.9616C1237.55 95.9616 1221.87 109.435 1221.87 136.067V187.766C1221.87 196.383 1214.6 203.328 1205.58 203.328C1196.56 203.328 1189.29 196.383 1189.29 187.766V85.1518C1189.29 76.9531 1196.23 70.3211 1204.81 70.3211C1213.39 70.3211 1220.34 76.9531 1220.34 85.1518V87.5018C1231.05 75.282 1247.99 68.8066 1268.33 68.8066C1301.67 68.8066 1326.43 86.9796 1326.43 127.085Z" fill="white"/>
<path d="M1490.3 146.77H1390.27C1394.21 166.196 1411.15 178.625 1435.36 178.625C1446.41 178.625 1455.75 176.275 1463.73 171.47C1469.64 167.972 1477.23 168.703 1481.82 173.716C1487.29 179.721 1485.87 188.86 1478.98 193.351C1467.23 201.027 1452.09 204.996 1434.54 204.996C1383.16 204.996 1351.74 170.269 1358.57 124.472C1362.39 98.9877 1388.41 73.9217 1415.03 69.9007C1462.97 62.6942 1499.92 91.1024 1499.92 137.527C1499.92 137.527 1499.92 137.527 1499.92 137.579C1499.92 142.644 1495.49 146.718 1490.19 146.718L1490.3 146.77ZM1396.94 126.09H1462.31C1465.86 126.09 1468.65 122.8 1467.61 119.563C1462.75 104.001 1448.54 93.7134 1429.68 93.7134C1410.82 93.7134 1396.94 103.792 1391.69 119.458C1390.6 122.748 1393.33 126.09 1396.94 126.09Z" fill="white"/>
<path d="M1521.4 178.783L1521.67 178.313C1524.9 172.203 1532.55 169.436 1539.11 172.151C1550.2 176.746 1563.65 179.671 1576.44 179.671C1597.05 179.671 1605.63 174.188 1605.63 164.997C1605.63 139.617 1519.59 163.482 1519.59 110.478C1519.59 85.3076 1543.32 68.9102 1580.87 68.9102C1593.44 68.9102 1607.27 70.8946 1618.75 74.3934C1626.67 76.8478 1630.28 85.5687 1626.51 92.6707C1623.34 98.6761 1615.96 101.339 1609.4 98.9372C1599.78 95.3862 1590.21 94.0807 1580.59 94.0807C1560.81 94.0807 1551.41 100.295 1551.41 109.016C1551.41 135.91 1637.44 111.992 1637.44 164.057C1637.44 188.966 1613.44 205.155 1574.36 205.155C1557.64 205.155 1540.86 201.76 1528.12 196.695C1520.91 193.823 1517.9 185.519 1521.4 178.835V178.783Z" fill="white"/>
<defs>
<linearGradient id="paint0_linear_307_4193" x1="6.51812" y1="124.368" x2="111.058" y2="233.844" gradientUnits="userSpaceOnUse">
<stop/>
<stop offset="1" stop-color="white"/>
</linearGradient>
<linearGradient id="paint1_linear_307_4193" x1="1753.48" y1="124.368" x2="1648.94" y2="233.844" gradientUnits="userSpaceOnUse">
<stop/>
<stop offset="1" stop-color="white"/>
</linearGradient>
</defs>
</svg>
