<svg width="350" height="57" viewBox="0 0 350 57" fill="none" xmlns="http://www.w3.org/2000/svg">
<path d="M168.343 0.708984C170.234 0.708984 171.549 2.48479 170.93 4.18789L155.745 45.6024C155.364 46.6513 154.321 47.3574 153.158 47.3574C151.266 47.3574 149.951 45.5816 150.571 43.8785L165.756 2.46401C166.136 1.41515 167.18 0.708984 168.343 0.708984Z" fill="white"/>
<path d="M23.0792 46.1218C21.3509 47.7729 18.5465 47.7729 16.8182 46.1218L1.29621 31.2923C-0.432072 29.6411 -0.432072 26.9618 1.29621 25.3107C3.0245 23.6595 5.8289 23.6595 7.55719 25.3107L23.0792 40.1401C24.8075 41.7913 24.8075 44.4706 23.0792 46.1218Z" fill="url(#paint0_linear_307_4021)"/>
<path d="M7.55719 31.2819L23.0792 16.4524C24.8075 14.8013 24.8075 12.122 23.0792 10.4708C21.3509 8.81963 18.5465 8.81963 16.8182 10.4708L1.29621 25.3003C-0.432072 26.9514 -0.432072 29.6307 1.29621 31.2819L7.62247 37.3259C6.7855 36.5574 6.26375 35.4773 6.26375 34.2727C6.26375 33.0681 6.75283 32.0504 7.55719 31.2819Z" fill="white"/>
<path d="M326.921 46.1218C328.649 47.7729 331.453 47.7729 333.182 46.1218L348.704 31.2923C350.432 29.6411 350.432 26.9618 348.704 25.3107C346.975 23.6595 344.171 23.6595 342.443 25.3107L326.921 40.1401C325.192 41.7913 325.192 44.4706 326.921 46.1218Z" fill="url(#paint1_linear_307_4021)"/>
<path d="M342.443 31.2819L326.921 16.4524C325.192 14.8013 325.192 12.122 326.921 10.4708C328.649 8.81963 331.453 8.81963 333.182 10.4708L348.704 25.3003C350.432 26.9514 350.432 29.6307 348.704 31.2819L342.377 37.3259C343.214 36.5574 343.736 35.4773 343.736 34.2727C343.736 33.1096 343.247 32.0504 342.443 31.2819Z" fill="white"/>
<path d="M115.896 7.3448V37.8968C115.896 39.6103 114.45 40.9915 112.657 40.9915H110.744C110.157 40.9915 109.667 40.5345 109.667 39.9634C109.667 39.1222 108.657 38.6341 107.961 39.143C105.939 40.6073 103.385 41.3342 100.493 41.3342C92.4606 41.3342 86.4932 35.986 86.4932 27.7613C86.4932 19.5365 92.4498 14.2403 100.493 14.2403C103.233 14.2403 105.722 14.9049 107.722 16.3069C108.428 16.795 109.418 16.3069 109.418 15.4761V7.33442C109.418 5.62093 110.863 4.23975 112.657 4.23975C114.45 4.23975 115.896 5.62093 115.896 7.33442V7.3448ZM109.515 27.7717C109.515 22.7247 105.939 19.5054 101.276 19.5054C96.613 19.5054 93.0368 22.7247 93.0368 27.7717C93.0368 32.8187 96.613 36.0379 101.276 36.0379C105.939 36.0379 109.515 32.8187 109.515 27.7717Z" fill="white"/>
<path d="M148.494 29.7555H128.592C129.374 33.6186 132.744 36.0902 137.559 36.0902C139.777 36.0902 141.657 35.6125 143.266 34.6363C144.407 33.9405 145.918 34.1378 146.809 35.114C147.885 36.2979 147.635 38.1048 146.277 38.9979C143.929 40.5348 140.907 41.3345 137.407 41.3345C128.124 41.3345 122.113 35.6436 122.113 27.7616C122.113 20.2118 128.711 14.1575 136.614 14.2406C144.603 14.3237 150.407 19.703 150.407 27.907C150.407 27.907 150.407 27.907 150.407 27.9173C150.407 28.9247 149.538 29.7347 148.483 29.7347L148.494 29.7555ZM128.548 25.6431H143.179C143.766 25.6431 144.19 25.1135 144.038 24.5631C143.135 21.3438 140.266 19.2045 136.429 19.2045C132.233 19.2045 129.168 21.7799 128.548 25.6431Z" fill="white"/>
<path d="M44.2316 37.149C38.7859 37.149 34.4381 32.6316 35.0685 27.3042C35.5359 23.3788 38.8076 20.1595 42.9055 19.6091C44.873 19.3495 46.7425 19.6818 48.3404 20.4399C50.1013 21.281 52.2317 20.7099 53.21 19.0898C52.1883 18.5706 51.1775 18.0306 50.1666 17.4906C45.4056 14.9671 39.6229 15.5175 35.4598 18.9029C31.3836 22.2261 29.8945 27.73 31.7641 32.5901C33.6337 37.4605 38.4707 40.6694 43.8947 40.659C46.2643 40.659 48.4491 40.0359 50.5035 38.904C51.1339 38.5613 51.7643 38.2186 52.3948 37.8967C51.9274 36.2247 49.9709 35.4459 48.3404 36.2143C47.1012 36.8063 45.6991 37.1386 44.2209 37.1386L44.2316 37.149Z" fill="white"/>
<path d="M79.4603 18.3944C75.4276 15.549 69.9928 15.2686 65.5362 17.4702C65.5145 17.4702 65.5036 17.4909 65.4818 17.5013C63.9275 18.2698 62.4166 19.1421 60.8513 19.8898C58.9491 20.8037 56.71 20.7933 54.8078 19.8898C54.4274 19.7133 53.9382 19.4848 53.5578 19.2979C53.5578 19.2979 53.536 19.2875 53.5251 19.2771L53.5578 19.3083C53.5469 19.4537 53.536 19.599 53.536 19.7548C53.536 22.5691 55.5905 24.9264 58.3514 25.5391C58.4927 25.5703 58.6339 25.5911 58.7752 25.6118C58.8187 25.6118 58.8621 25.6222 58.9056 25.6326C59.0143 25.643 59.1231 25.6534 59.2426 25.6741C59.4165 25.6845 59.5796 25.6949 59.7535 25.6949C59.7752 25.6949 59.797 25.6949 59.8296 25.6949C61.0253 25.7365 61.8296 25.4457 61.8296 25.4457C62.1231 25.3522 62.4167 25.2588 62.6993 25.1445C64.558 24.4176 66.3188 23.4206 68.0797 22.4652C69.7645 21.5514 71.5472 21.2295 73.4168 21.676C76.319 22.3614 78.1776 24.1787 78.7537 26.9619C78.8516 27.4188 78.8842 27.8653 78.8951 28.3015C78.8842 28.7376 78.8407 29.1842 78.7537 29.6411C78.1776 32.4243 76.3299 34.2312 73.4168 34.927C71.5472 35.3735 69.7754 35.0516 68.0797 34.1377C66.3188 33.1823 64.5689 32.1854 62.6993 31.4585C62.4167 31.3442 62.1231 31.2508 61.8296 31.1573C61.8296 31.1573 61.0144 30.8665 59.8296 30.9081C59.8296 30.9081 59.7861 30.9081 59.7535 30.9081C59.5796 30.9081 59.4057 30.9185 59.2426 30.9289C59.1339 30.9392 59.0252 30.9496 58.9056 30.9704C58.8621 30.9704 58.8187 30.9808 58.7752 30.9912C58.6339 31.0119 58.4927 31.0431 58.3514 31.0638C55.5905 31.6662 53.536 34.0235 53.536 36.8482C53.536 36.9935 53.5469 37.1493 53.5578 37.2947L53.5251 37.3259C53.5251 37.3259 53.5469 37.3155 53.5578 37.3051C53.9382 37.1182 54.4274 36.8897 54.8078 36.7132C56.71 35.8097 58.9491 35.7993 60.8513 36.7132C62.4166 37.4609 63.9275 38.3332 65.4818 39.1017C65.5036 39.1017 65.5145 39.1224 65.5362 39.1328C69.9928 41.324 75.4276 41.054 79.4603 38.2086C83.0038 35.7058 84.7539 32.3308 84.6561 28.3119C84.7539 24.293 83.0038 20.9179 79.4603 18.4152V18.3944Z" fill="white"/>
<path d="M171.093 27.7715C171.093 19.8479 177.31 14.2505 186.071 14.2505C189.995 14.2505 193.354 15.3824 195.702 17.5425C197.082 18.8094 196.832 20.9798 195.18 21.9041L195.028 21.9872C193.886 22.6206 192.484 22.3922 191.528 21.5198C189.995 20.1387 188.082 19.4948 186.028 19.4948C181.256 19.4948 177.625 22.6622 177.625 27.7611C177.625 32.86 181.256 36.0274 186.028 36.0274C188.093 36.0274 190.006 35.3835 191.528 34.0023C192.484 33.13 193.886 32.9016 195.028 33.535L195.169 33.6181C196.821 34.5424 197.071 36.7024 195.702 37.9693C193.354 40.1398 190.006 41.3236 186.071 41.3236C177.31 41.3236 171.093 35.6743 171.093 27.7507V27.7715Z" fill="white"/>
<path d="M200.789 27.7715C200.789 19.8479 207.006 14.2505 215.506 14.2505C224.006 14.2505 230.278 19.8479 230.278 27.7715C230.278 35.6951 224.104 41.3444 215.506 41.3444C206.908 41.3444 200.789 35.6951 200.789 27.7715ZM223.756 27.7715C223.756 22.7245 220.235 19.5052 215.517 19.5052C210.8 19.5052 207.332 22.7245 207.332 27.7715C207.332 32.8185 210.854 36.0377 215.517 36.0377C220.18 36.0377 223.756 32.8185 223.756 27.7715Z" fill="white"/>
<path d="M263.779 25.8399V37.8966C263.779 39.6101 262.333 40.9913 260.539 40.9913C258.746 40.9913 257.3 39.6101 257.3 37.8966V26.6291C257.3 21.9248 254.865 19.6506 250.713 19.6506C246.104 19.6506 242.985 22.3299 242.985 27.6261V37.907C242.985 39.6205 241.539 41.0017 239.746 41.0017C237.952 41.0017 236.506 39.6205 236.506 37.907V17.5009C236.506 15.8705 237.887 14.5517 239.593 14.5517C241.3 14.5517 242.68 15.8705 242.68 17.5009V17.9682C244.811 15.5382 248.181 14.2505 252.224 14.2505C258.855 14.2505 263.779 17.8644 263.779 25.8399Z" fill="white"/>
<path d="M296.366 29.7552H276.474C277.257 33.6183 280.627 36.0899 285.442 36.0899C287.638 36.0899 289.496 35.6226 291.083 34.6672C292.257 33.9714 293.768 34.1168 294.681 35.1138C295.768 36.308 295.485 38.1253 294.116 39.0184C291.779 40.545 288.768 41.3342 285.279 41.3342C275.061 41.3342 268.811 34.4284 270.17 25.3209C270.931 20.2531 276.105 15.2684 281.398 14.4688C290.931 13.0357 298.279 18.685 298.279 27.9171C298.279 27.9171 298.279 27.9171 298.279 27.9275C298.279 28.9348 297.399 29.7448 296.344 29.7448L296.366 29.7552ZM277.8 25.6428H290.801C291.507 25.6428 292.062 24.9886 291.855 24.3447C290.888 21.2501 288.061 19.2043 284.311 19.2043C280.561 19.2043 277.8 21.2085 276.757 24.324C276.54 24.9782 277.083 25.6428 277.8 25.6428Z" fill="white"/>
<path d="M302.551 36.1211L302.605 36.0276C303.247 34.8126 304.768 34.2622 306.073 34.8022C308.279 35.7161 310.953 36.2976 313.497 36.2976C317.595 36.2976 319.301 35.2072 319.301 33.3795C319.301 28.3325 302.192 33.0783 302.192 22.5378C302.192 17.5323 306.91 14.2715 314.377 14.2715C316.877 14.2715 319.627 14.6661 321.91 15.3619C323.486 15.85 324.203 17.5842 323.453 18.9966C322.823 20.1908 321.355 20.7204 320.051 20.2427C318.138 19.5366 316.236 19.277 314.323 19.277C310.388 19.277 308.518 20.5127 308.518 22.247C308.518 27.5952 325.627 22.8389 325.627 33.1926C325.627 38.1461 320.855 41.3654 313.084 41.3654C309.757 41.3654 306.42 40.6904 303.888 39.683C302.453 39.1119 301.855 37.4607 302.551 36.1314V36.1211Z" fill="white"/>
<path d="M171.093 50.9819V50.9611C171.093 48.6973 172.919 46.7969 175.516 46.7969C178.114 46.7969 179.908 48.6765 179.908 50.9404V50.9611C179.908 53.225 178.082 55.1255 175.484 55.1255C172.886 55.1255 171.093 53.2458 171.093 50.9819ZM178.353 50.9819V50.9611C178.353 49.393 177.158 48.095 175.484 48.095C173.81 48.095 172.636 49.3723 172.636 50.9404V50.9611C172.636 52.5293 173.832 53.817 175.506 53.817C177.18 53.817 178.353 52.55 178.353 50.9819Z" fill="white"/>
<path d="M187.19 54.3571C187.19 54.7413 186.864 55.0425 186.451 55.0425C186.038 55.0425 185.712 54.7413 185.712 54.3571V54.0455C185.299 54.6167 184.712 55.1152 183.723 55.1152C182.288 55.1152 181.462 54.1909 181.462 52.7786V49.5489C181.462 49.1543 181.788 48.8428 182.19 48.8428C182.593 48.8428 182.93 49.1543 182.93 49.5489V52.3736C182.93 53.3186 183.419 53.8482 184.288 53.8482C185.158 53.8482 185.723 53.2978 185.723 52.3528V49.5593C185.723 49.1647 186.049 48.8531 186.462 48.8531C186.875 48.8531 187.201 49.1647 187.201 49.5593V54.3675L187.19 54.3571Z" fill="white"/>
<path d="M189.31 53.3078V50.1093H189.071C188.723 50.1093 188.44 49.8393 188.44 49.507C188.44 49.1747 188.712 48.9047 189.071 48.9047H189.31V47.8662C189.31 47.482 189.636 47.1704 190.049 47.1704C190.462 47.1704 190.777 47.482 190.777 47.8662V48.9047H191.918C192.266 48.9047 192.56 49.1747 192.56 49.507C192.56 49.8393 192.266 50.1093 191.918 50.1093H190.777V53.0897C190.777 53.6298 191.071 53.8478 191.56 53.8478C191.734 53.8478 191.875 53.8167 191.918 53.8167C192.244 53.8167 192.538 54.0659 192.538 54.3878C192.538 54.6371 192.353 54.8448 192.158 54.9278C191.842 55.0317 191.538 55.094 191.158 55.094C190.082 55.094 189.332 54.6475 189.332 53.3078H189.31Z" fill="white"/>
<path d="M193.429 51.9788V51.958C193.429 50.2341 194.832 48.7803 196.744 48.7803C197.744 48.7803 198.429 49.0918 198.973 49.5383C199.07 49.6214 199.201 49.7876 199.201 50.0264C199.201 50.3795 198.896 50.6599 198.527 50.6599C198.342 50.6599 198.19 50.5872 198.092 50.5249C197.723 50.2237 197.31 50.0057 196.734 50.0057C195.668 50.0057 194.886 50.878 194.886 51.9372V51.958C194.886 53.038 195.668 53.9 196.788 53.9C197.364 53.9 197.81 53.6819 198.212 53.36C198.299 53.2873 198.44 53.2146 198.614 53.2146C198.962 53.2146 199.244 53.4949 199.244 53.8273C199.244 54.0142 199.168 54.1596 199.038 54.2634C198.473 54.7827 197.788 55.1254 196.723 55.1254C194.832 55.1254 193.429 53.713 193.429 51.9892V51.9788Z" fill="white"/>
<path d="M200.136 51.9788V51.958C200.136 50.2238 201.582 48.7803 203.538 48.7803C205.494 48.7803 206.918 50.1926 206.918 51.9372V51.958C206.918 53.6819 205.472 55.1254 203.505 55.1254C201.538 55.1254 200.136 53.713 200.136 51.9892V51.9788ZM205.462 51.9788V51.958C205.462 50.8884 204.657 50.0057 203.505 50.0057C202.353 50.0057 201.592 50.878 201.592 51.9372V51.958C201.592 53.0173 202.397 53.9 203.527 53.9C204.657 53.9 205.451 53.0276 205.451 51.9788H205.462Z" fill="white"/>
<path d="M208.408 49.5486C208.408 49.154 208.723 48.8425 209.125 48.8425C209.528 48.8425 209.864 49.154 209.864 49.5486V49.8394C210.278 49.2994 210.832 48.7905 211.799 48.7905C212.712 48.7905 213.365 49.2163 213.702 49.8602C214.212 49.2163 214.886 48.7905 215.843 48.7905C217.223 48.7905 218.071 49.6317 218.071 51.1167V54.3672C218.071 54.7618 217.756 55.0525 217.354 55.0525C216.952 55.0525 216.615 54.7514 216.615 54.3672V51.5425C216.615 50.5767 216.147 50.0575 215.321 50.0575C214.495 50.0575 213.962 50.5871 213.962 51.5633V54.3568C213.962 54.7514 213.636 55.0422 213.234 55.0422C212.832 55.0422 212.495 54.741 212.495 54.3568V51.5217C212.495 50.5767 212.017 50.0471 211.202 50.0471C210.386 50.0471 209.843 50.6183 209.843 51.5529V54.3464C209.843 54.741 209.517 55.0318 209.104 55.0318C208.691 55.0318 208.386 54.7306 208.386 54.3464V49.5382L208.408 49.5486Z" fill="white"/>
<path d="M222.767 55.1254C220.919 55.1254 219.506 53.848 219.506 51.9684V51.9476C219.506 50.2134 220.8 48.7803 222.615 48.7803C224.636 48.7803 225.636 50.3691 225.636 51.7711C225.636 52.1657 225.321 52.4357 224.951 52.4357H220.963C221.115 53.4223 221.854 53.983 222.788 53.983C223.408 53.983 223.886 53.7754 224.299 53.4534C224.408 53.3703 224.506 53.3288 224.669 53.3288C224.995 53.3288 225.245 53.5676 225.245 53.8896C225.245 54.0661 225.158 54.2115 225.049 54.3153C224.473 54.8138 223.745 55.1254 222.756 55.1254H222.767ZM224.212 51.5218C224.114 50.6287 223.56 49.9226 222.604 49.9226C221.713 49.9226 221.082 50.5768 220.952 51.5218H224.212Z" fill="white"/>
<path d="M226.886 54.3776C226.734 54.2946 226.615 54.1284 226.615 53.8896C226.615 53.578 226.865 53.3288 227.202 53.3288C227.321 53.3288 227.43 53.3599 227.517 53.4119C228.125 53.8065 228.767 54.0038 229.343 54.0038C229.973 54.0038 230.332 53.7546 230.332 53.3496V53.3288C230.332 52.8615 229.658 52.6953 228.908 52.4772C227.973 52.228 226.919 51.8542 226.919 50.6911V50.6703C226.919 49.5176 227.919 48.8218 229.18 48.8218C229.854 48.8218 230.56 49.0087 231.18 49.3203C231.386 49.4241 231.527 49.611 231.527 49.8499C231.527 50.1718 231.266 50.4106 230.93 50.4106C230.81 50.4106 230.734 50.3899 230.636 50.338C230.115 50.0887 229.593 49.9226 229.147 49.9226C228.582 49.9226 228.256 50.1718 228.256 50.5249V50.5457C228.256 50.9922 228.941 51.1791 229.691 51.4076C230.614 51.688 231.669 52.0826 231.669 53.1834V53.2042C231.669 54.4815 230.636 55.115 229.31 55.115C228.506 55.115 227.626 54.8761 226.886 54.388V54.3776Z" fill="white"/>
<path d="M236.952 47.6482C236.952 47.2432 237.278 46.9316 237.702 46.9316H240.093C242.745 46.9316 244.571 48.6659 244.571 50.9401V50.9609C244.571 53.2248 242.745 54.9902 240.093 54.9902H237.702C237.278 54.9902 236.952 54.6787 236.952 54.2737V47.6482ZM240.104 53.7025C241.875 53.7025 243.027 52.5602 243.027 50.9817V50.9609C243.027 49.3824 241.875 48.2193 240.104 48.2193H238.441V53.7025H240.104Z" fill="white"/>
<path d="M246.213 49.5489C246.213 49.1543 246.528 48.8428 246.93 48.8428C247.333 48.8428 247.669 49.1543 247.669 49.5489V50.172C248.006 49.4139 248.637 48.8428 249.267 48.8428C249.724 48.8428 249.984 49.1336 249.984 49.5282C249.984 49.8916 249.734 50.1409 249.408 50.1928C248.376 50.3693 247.659 51.1274 247.659 52.5605V54.3571C247.659 54.7413 247.333 55.0425 246.92 55.0425C246.507 55.0425 246.202 54.7413 246.202 54.3571V49.5489H246.213Z" fill="white"/>
<path d="M251.17 47.2741C251.17 46.8587 251.528 46.5991 251.996 46.5991C252.463 46.5991 252.822 46.8587 252.822 47.2741V47.3468C252.822 47.7622 252.463 48.0426 251.996 48.0426C251.528 48.0426 251.17 47.7622 251.17 47.3468V47.2741ZM251.278 49.5484C251.278 49.1538 251.594 48.8422 251.996 48.8422C252.398 48.8422 252.735 49.1538 252.735 49.5484V54.3566C252.735 54.7512 252.409 55.042 251.996 55.042C251.583 55.042 251.278 54.7408 251.278 54.3566V49.5484Z" fill="white"/>
<path d="M257.289 55.1048H257.213C256.811 55.1048 256.55 54.8659 256.387 54.4921L254.267 49.8501C254.235 49.7463 254.18 49.632 254.18 49.5074C254.18 49.1647 254.507 48.8428 254.909 48.8428C255.311 48.8428 255.506 49.0608 255.637 49.3516L257.278 53.3809L258.941 49.3309C259.05 49.092 259.245 48.8428 259.626 48.8428C260.006 48.8428 260.332 49.1335 260.332 49.5074C260.332 49.632 260.289 49.7774 260.245 49.8397L258.126 54.4921C257.952 54.8452 257.691 55.1048 257.3 55.1048H257.289Z" fill="white"/>
<path d="M264.354 55.1254C262.507 55.1254 261.094 53.848 261.094 51.9684V51.9476C261.094 50.2134 262.387 48.7803 264.202 48.7803C266.224 48.7803 267.224 50.3691 267.224 51.7711C267.224 52.1657 266.908 52.4357 266.539 52.4357H262.55C262.702 53.4223 263.441 53.983 264.376 53.983C264.996 53.983 265.474 53.7754 265.887 53.4534C265.996 53.3703 266.093 53.3288 266.256 53.3288C266.582 53.3288 266.832 53.5676 266.832 53.8896C266.832 54.0661 266.746 54.2115 266.637 54.3153C266.061 54.8138 265.333 55.1254 264.343 55.1254H264.354ZM265.8 51.5218C265.702 50.6287 265.148 49.9226 264.191 49.9226C263.3 49.9226 262.67 50.5768 262.539 51.5218H265.8Z" fill="white"/>
<path d="M268.713 49.5486C268.713 49.154 269.029 48.8425 269.431 48.8425C269.833 48.8425 270.17 49.154 270.17 49.5486V49.8498C270.583 49.289 271.17 48.7905 272.159 48.7905C273.593 48.7905 274.419 49.7148 274.419 51.1167V54.3672C274.419 54.7618 274.104 55.0525 273.702 55.0525C273.3 55.0525 272.963 54.7514 272.963 54.3672V51.5425C272.963 50.5975 272.474 50.0575 271.604 50.0575C270.735 50.0575 270.17 50.6183 270.17 51.5633V54.3568C270.17 54.7514 269.844 55.0422 269.431 55.0422C269.018 55.0422 268.713 54.741 268.713 54.3568V49.5486Z" fill="white"/>
<path d="M279.594 50.9819V50.9611C279.594 48.6661 281.387 46.7969 283.941 46.7969C285.246 46.7969 286.093 47.1603 286.833 47.7107C286.985 47.825 287.126 48.0223 287.126 48.2715C287.126 48.6661 286.8 48.9673 286.387 48.9673C286.18 48.9673 286.039 48.8946 285.941 48.8323C285.365 48.3857 284.735 48.1053 283.931 48.1053C282.333 48.1053 281.148 49.3723 281.148 50.9508V50.9715C281.148 52.55 282.311 53.8274 283.931 53.8274C284.822 53.8274 285.42 53.547 286.039 53.0589C286.148 52.9654 286.3 52.9031 286.485 52.9031C286.854 52.9031 287.18 53.2043 287.18 53.5573C287.18 53.7754 287.072 53.952 286.941 54.0662C286.148 54.7308 285.246 55.1462 283.887 55.1462C281.431 55.1462 279.594 53.3185 279.594 51.0027V50.9819Z" fill="white"/>
<path d="M288.225 51.9788V51.958C288.225 50.2238 289.67 48.7803 291.627 48.7803C293.583 48.7803 295.007 50.1926 295.007 51.9372V51.958C295.007 53.6819 293.561 55.1254 291.594 55.1254C289.627 55.1254 288.225 53.713 288.225 51.9892V51.9788ZM293.55 51.9788V51.958C293.55 50.8884 292.746 50.0057 291.594 50.0057C290.442 50.0057 289.681 50.878 289.681 51.9372V51.958C289.681 53.0173 290.485 53.9 291.616 53.9C292.746 53.9 293.539 53.0276 293.539 51.9788H293.55Z" fill="white"/>
<path d="M302.746 54.3571C302.746 54.7517 302.42 55.0425 302.018 55.0425C301.616 55.0425 301.279 54.7414 301.279 54.3571V53.9729C300.811 54.6064 300.148 55.1152 299.105 55.1152C297.616 55.1152 296.159 53.9729 296.159 51.9582V51.9375C296.159 49.9228 297.594 48.7805 299.105 48.7805C300.148 48.7805 300.811 49.279 301.279 49.8501V47.2124C301.279 46.8178 301.605 46.5166 301.996 46.5166C302.387 46.5166 302.735 46.8178 302.735 47.2124V54.3467L302.746 54.3571ZM297.638 51.9375V51.9582C297.638 53.1317 298.485 53.9002 299.464 53.9002C300.442 53.9002 301.311 53.1213 301.311 51.9582V51.9375C301.311 50.764 300.442 49.9955 299.464 49.9955C298.485 49.9955 297.638 50.7328 297.638 51.9375Z" fill="white"/>
<path d="M304.562 47.2741C304.562 46.8587 304.92 46.5991 305.388 46.5991C305.855 46.5991 306.214 46.8587 306.214 47.2741V47.3468C306.214 47.7622 305.855 48.0426 305.388 48.0426C304.92 48.0426 304.562 47.7622 304.562 47.3468V47.2741ZM304.671 49.5484C304.671 49.1538 304.986 48.8422 305.388 48.8422C305.79 48.8422 306.127 49.1538 306.127 49.5484V54.3566C306.127 54.7512 305.801 55.042 305.388 55.042C304.975 55.042 304.671 54.7408 304.671 54.3566V49.5484Z" fill="white"/>
<path d="M308.029 49.5486C308.029 49.154 308.345 48.8425 308.758 48.8425C309.171 48.8425 309.497 49.154 309.497 49.5486V49.8498C309.91 49.289 310.496 48.7905 311.485 48.7905C312.92 48.7905 313.746 49.7148 313.746 51.1167V54.3672C313.746 54.7618 313.431 55.0525 313.029 55.0525C312.627 55.0525 312.29 54.7514 312.29 54.3672V51.5425C312.29 50.5975 311.801 50.0575 310.931 50.0575C310.062 50.0575 309.497 50.6183 309.497 51.5633V54.3568C309.497 54.7514 309.171 55.0422 308.758 55.0422C308.345 55.0422 308.029 54.741 308.029 54.3568V49.5486Z" fill="white"/>
<path d="M315.877 56.3091C315.627 56.2157 315.464 56.0184 315.464 55.7587C315.464 55.4472 315.736 55.1876 316.084 55.1876C316.192 55.1876 316.279 55.2083 316.344 55.2499C316.92 55.5614 317.562 55.7379 318.301 55.7379C319.605 55.7379 320.312 55.0941 320.312 53.8687V53.4014C319.779 54.0556 319.116 54.5125 318.072 54.5125C316.583 54.5125 315.181 53.4533 315.181 51.6671V51.6463C315.181 49.8498 316.594 48.7905 318.072 48.7905C319.148 48.7905 319.812 49.2578 320.301 49.829V49.5382C320.301 49.154 320.627 48.8425 321.018 48.8425C321.409 48.8425 321.757 49.154 321.757 49.5486V53.7544C321.757 54.7825 321.485 55.5407 320.953 56.0495C320.377 56.5999 319.485 56.8699 318.344 56.8699C317.453 56.8699 316.66 56.683 315.888 56.3299L315.877 56.3091ZM320.322 51.6463V51.6256C320.322 50.639 319.464 49.9536 318.453 49.9536C317.442 49.9536 316.649 50.6183 316.649 51.6256V51.6463C316.649 52.6329 317.453 53.3183 318.453 53.3183C319.453 53.3183 320.322 52.6433 320.322 51.6463Z" fill="white"/>
<defs>
<linearGradient id="paint0_linear_307_4021" x1="1.29622" y1="25.3003" x2="22.0852" y2="47.0709" gradientUnits="userSpaceOnUse">
<stop/>
<stop offset="1" stop-color="white"/>
</linearGradient>
<linearGradient id="paint1_linear_307_4021" x1="348.704" y1="25.3003" x2="327.915" y2="47.0709" gradientUnits="userSpaceOnUse">
<stop/>
<stop offset="1" stop-color="white"/>
</linearGradient>
</defs>
</svg>
