<svg width="300" height="50" viewBox="0 0 300 50" fill="none" xmlns="http://www.w3.org/2000/svg">
<path d="M144.298 0.930237C145.919 0.930237 147.047 2.4524 146.516 3.91225L133.5 39.4114C133.174 40.3105 132.279 40.9158 131.282 40.9158C129.661 40.9158 128.534 39.3936 129.065 37.9338L142.081 2.43459C142.407 1.53554 143.301 0.930237 144.298 0.930237Z" fill="#FFC94D"/>
<path d="M19.7827 39.8567C18.3013 41.272 15.8975 41.272 14.416 39.8567L1.11108 27.1453C-0.370358 25.73 -0.370358 23.4334 1.11108 22.018C2.59251 20.6027 4.99635 20.6027 6.47778 22.018L19.7827 34.7294C21.2642 36.1447 21.2642 38.4413 19.7827 39.8567Z" fill="url(#paint0_linear_2071_1100)"/>
<path d="M6.47778 27.1364L19.7827 14.425C21.2642 13.0097 21.2642 10.7131 19.7827 9.29777C18.3013 7.88243 15.8975 7.88243 14.416 9.29777L1.11108 22.0091C-0.370358 23.4245 -0.370358 25.721 1.11108 27.1364L6.53368 32.3171C5.81626 31.6584 5.36903 30.7326 5.36903 29.7C5.36903 28.6674 5.78831 27.7951 6.47778 27.1364Z" fill="#FFC94D"/>
<path d="M280.217 39.8567C281.699 41.272 284.103 41.272 285.584 39.8567L298.889 27.1453C300.37 25.73 300.37 23.4334 298.889 22.018C297.407 20.6027 295.004 20.6027 293.522 22.018L280.217 34.7294C278.736 36.1447 278.736 38.4413 280.217 39.8567Z" fill="url(#paint1_linear_2071_1100)"/>
<path d="M293.522 27.1364L280.217 14.425C278.736 13.0097 278.736 10.7131 280.217 9.29777C281.699 7.88243 284.103 7.88243 285.584 9.29777L298.889 22.0091C300.37 23.4245 300.37 25.721 298.889 27.1364L293.466 32.3171C294.184 31.6584 294.631 30.7326 294.631 29.7C294.631 28.703 294.212 27.7951 293.522 27.1364Z" fill="#FFC94D"/>
<path d="M99.3422 6.61816V32.8064C99.3422 34.2751 98.103 35.459 96.5656 35.459H94.9258C94.4227 35.459 94.0034 35.0674 94.0034 34.5778C94.0034 33.8567 93.1369 33.4384 92.5406 33.8746C90.8076 35.1297 88.6181 35.7528 86.1397 35.7528C79.2543 35.7528 74.1392 31.1685 74.1392 24.1185C74.1392 17.0685 79.245 12.5288 86.1397 12.5288C88.4876 12.5288 90.6213 13.0985 92.3356 14.3002C92.9413 14.7185 93.7891 14.3002 93.7891 13.588V6.60926C93.7891 5.14051 95.0283 3.9566 96.5656 3.9566C98.103 3.9566 99.3422 5.14051 99.3422 6.60926V6.61816ZM93.873 24.1274C93.873 19.8013 90.8076 17.0418 86.8105 17.0418C82.8135 17.0418 79.7481 19.8013 79.7481 24.1274C79.7481 28.4535 82.8135 31.213 86.8105 31.213C90.8076 31.213 93.873 28.4535 93.873 24.1274Z" fill="#003462"/>
<path d="M127.285 25.8274H110.225C110.896 29.1388 113.785 31.2573 117.912 31.2573C119.813 31.2573 121.425 30.8478 122.804 30.0111C123.782 29.4147 125.077 29.5838 125.841 30.4206C126.763 31.4354 126.549 32.9842 125.384 33.7497C123.372 35.0672 120.782 35.7526 117.782 35.7526C109.825 35.7526 104.672 30.8746 104.672 24.1183C104.672 17.6469 110.328 12.4573 117.101 12.5286C123.95 12.5998 128.925 17.2107 128.925 24.2429C128.925 24.2429 128.925 24.2429 128.925 24.2518C128.925 25.1153 128.18 25.8096 127.276 25.8096L127.285 25.8274ZM110.179 22.3024H122.72C123.223 22.3024 123.586 21.8484 123.456 21.3767C122.682 18.6172 120.223 16.7835 116.934 16.7835C113.337 16.7835 110.71 18.991 110.179 22.3024Z" fill="#003462"/>
<path d="M37.9045 32.1661C33.2366 32.1661 29.5097 28.294 30.0501 23.7275C30.4508 20.3627 33.2553 17.6032 36.7678 17.1315C38.4542 16.9089 40.0568 17.1938 41.4264 17.8436C42.9358 18.5646 44.762 18.075 45.6005 16.6864C44.7247 16.2413 43.8582 15.7784 42.9917 15.3156C38.9108 13.1525 33.954 13.6243 30.3856 16.5262C26.8916 19.3747 25.6152 24.0924 27.2177 28.2583C28.8203 32.4332 32.9664 35.1837 37.6157 35.1748C39.6469 35.1748 41.5196 34.6407 43.2806 33.6705C43.821 33.3767 44.3613 33.083 44.9017 32.807C44.5011 31.3739 42.824 30.7063 41.4264 31.365C40.3643 31.8724 39.1623 32.1572 37.8952 32.1572L37.9045 32.1661Z" fill="#003462"/>
<path d="M68.1114 16.0896C64.6548 13.6506 59.9962 13.4103 56.1761 15.2974C56.1575 15.2974 56.1482 15.3152 56.1295 15.3241C54.7972 15.9828 53.5021 16.7305 52.1604 17.3715C50.5299 18.1548 48.6105 18.1459 46.98 17.3715C46.6539 17.2201 46.2347 17.0243 45.9086 16.8641C45.9086 16.8641 45.8899 16.8552 45.8806 16.8463L45.9086 16.873C45.8992 16.9976 45.8899 17.1222 45.8899 17.2557C45.8899 19.668 47.6509 21.6887 50.0175 22.2139C50.1386 22.2406 50.2597 22.2584 50.3808 22.2762C50.4181 22.2762 50.4554 22.2851 50.4926 22.294C50.5858 22.3029 50.679 22.3118 50.7815 22.3296C50.9305 22.3385 51.0703 22.3474 51.2194 22.3474C51.238 22.3474 51.2566 22.3474 51.2846 22.3474C52.3095 22.383 52.9989 22.1337 52.9989 22.1337C53.2505 22.0536 53.5021 21.9735 53.7443 21.8756C55.3376 21.2525 56.847 20.398 58.3563 19.579C59.8005 18.7957 61.3285 18.5197 62.9311 18.9025C65.4188 19.49 67.012 21.0478 67.5058 23.4334C67.5897 23.825 67.6176 24.2078 67.6269 24.5817C67.6176 24.9555 67.5804 25.3383 67.5058 25.73C67.012 28.1156 65.4281 29.6644 62.9311 30.2608C61.3285 30.6436 59.8098 30.3676 58.3563 29.5843C56.847 28.7654 55.3469 27.9108 53.7443 27.2877C53.5021 27.1898 53.2505 27.1097 52.9989 27.0296C52.9989 27.0296 52.3002 26.7803 51.2846 26.8159C51.2846 26.8159 51.2473 26.8159 51.2194 26.8159C51.0703 26.8159 50.9212 26.8249 50.7815 26.8338C50.6883 26.8427 50.5951 26.8515 50.4926 26.8694C50.4554 26.8694 50.4181 26.8783 50.3808 26.8872C50.2597 26.905 50.1386 26.9317 50.0175 26.9495C47.6509 27.4657 45.8899 29.4864 45.8899 31.9076C45.8899 32.0322 45.8992 32.1658 45.9086 32.2904L45.8806 32.3171C45.8806 32.3171 45.8992 32.3082 45.9086 32.2993C46.2347 32.139 46.6539 31.9432 46.98 31.7919C48.6105 31.0175 50.5299 31.0086 52.1604 31.7919C53.5021 32.4328 54.7972 33.1805 56.1295 33.8392C56.1482 33.8392 56.1575 33.857 56.1761 33.8659C59.9962 35.7442 64.6548 35.5127 68.1114 33.0737C71.1488 30.9284 72.6489 28.0355 72.5651 24.5906C72.6489 21.1457 71.1488 18.2527 68.1114 16.1074V16.0896Z" fill="#FFC94D"/>
<path d="M146.646 24.1276C146.646 17.3358 151.975 12.5378 159.485 12.5378C162.848 12.5378 165.727 13.5081 167.74 15.3596C168.923 16.4456 168.709 18.306 167.292 19.0983L167.162 19.1695C166.184 19.7125 164.982 19.5166 164.162 18.7689C162.848 17.585 161.208 17.0331 159.447 17.0331C155.357 17.0331 152.245 19.7481 152.245 24.1187C152.245 28.4893 155.357 31.2043 159.447 31.2043C161.218 31.2043 162.857 30.6524 164.162 29.4685C164.982 28.7208 166.184 28.5249 167.162 29.0679L167.283 29.1392C168.699 29.9314 168.914 31.7829 167.74 32.8689C165.727 34.7293 162.857 35.7441 159.485 35.7441C151.975 35.7441 146.646 30.9016 146.646 24.1098V24.1276Z" fill="#003462"/>
<path d="M172.109 24.1276C172.109 17.3358 177.439 12.5378 184.725 12.5378C192.011 12.5378 197.387 17.3358 197.387 24.1276C197.387 30.9194 192.094 35.7619 184.725 35.7619C177.355 35.7619 172.109 30.9194 172.109 24.1276ZM191.796 24.1276C191.796 19.8015 188.778 17.042 184.734 17.042C180.69 17.042 177.718 19.8015 177.718 24.1276C177.718 28.4537 180.737 31.2132 184.734 31.2132C188.731 31.2132 191.796 28.4537 191.796 24.1276Z" fill="#003462"/>
<path d="M226.094 22.4719V32.8066C226.094 34.2753 224.854 35.4592 223.317 35.4592C221.78 35.4592 220.541 34.2753 220.541 32.8066V23.1484C220.541 19.1161 218.454 17.1666 214.894 17.1666C210.944 17.1666 208.27 19.4632 208.27 24.003V32.8155C208.27 34.2842 207.031 35.4681 205.493 35.4681C203.956 35.4681 202.717 34.2842 202.717 32.8155V15.324C202.717 13.9265 203.9 12.796 205.363 12.796C206.826 12.796 208.009 13.9265 208.009 15.324V15.7246C209.835 13.6416 212.723 12.5378 216.189 12.5378C221.873 12.5378 226.094 15.6356 226.094 22.4719Z" fill="#003462"/>
<path d="M254.036 25.828H236.985C237.656 29.1394 240.545 31.2579 244.672 31.2579C246.554 31.2579 248.147 30.8573 249.508 30.0384C250.514 29.442 251.809 29.5666 252.592 30.4212C253.523 31.4449 253.281 33.0026 252.107 33.7681C250.104 35.0767 247.523 35.7532 244.532 35.7532C235.774 35.7532 230.417 29.8337 231.581 22.0271C232.234 17.6831 236.669 13.4104 241.206 12.725C249.377 11.4966 255.676 16.339 255.676 24.2524C255.676 24.2524 255.676 24.2524 255.676 24.2613C255.676 25.1248 254.921 25.8191 254.017 25.8191L254.036 25.828ZM238.113 22.303H249.256C249.862 22.303 250.337 21.7422 250.16 21.1903C249.331 18.5377 246.908 16.7841 243.694 16.7841C240.479 16.7841 238.113 18.5021 237.218 21.1725C237.032 21.7333 237.498 22.303 238.113 22.303Z" fill="#003462"/>
<path d="M259.338 31.2842L259.384 31.2041C259.934 30.1626 261.238 29.6908 262.356 30.1537C264.248 30.937 266.54 31.4355 268.72 31.4355C272.233 31.4355 273.695 30.5008 273.695 28.9342C273.695 24.608 259.03 28.676 259.03 19.641C259.03 15.3505 263.074 12.5554 269.475 12.5554C271.618 12.5554 273.975 12.8937 275.931 13.4901C277.282 13.9085 277.897 15.395 277.254 16.6056C276.714 17.6293 275.456 18.0833 274.338 17.6738C272.698 17.0685 271.068 16.846 269.428 16.846C266.055 16.846 264.453 17.9052 264.453 19.3918C264.453 23.9761 279.118 19.8992 279.118 28.774C279.118 33.02 275.028 35.7794 268.366 35.7794C265.515 35.7794 262.654 35.2008 260.484 34.3374C259.254 33.8478 258.741 32.4325 259.338 31.2931V31.2842Z" fill="#003462"/>
<path d="M146.646 44.0229V44.0051C146.646 42.0646 148.211 40.4356 150.438 40.4356C152.664 40.4356 154.202 42.0468 154.202 43.9873V44.0051C154.202 45.9456 152.636 47.5746 150.41 47.5746C148.183 47.5746 146.646 45.9634 146.646 44.0229ZM152.879 44.0229V44.0051C152.879 42.661 151.854 41.5483 150.419 41.5483C148.984 41.5483 147.978 42.6432 147.978 43.9873V44.0051C147.978 45.3492 149.003 46.453 150.438 46.453C151.872 46.453 152.879 45.367 152.879 44.0229Z" fill="#003462"/>
<path d="M160.453 46.9157C160.453 47.2451 160.174 47.5032 159.82 47.5032C159.466 47.5032 159.186 47.2451 159.186 46.9157V46.6487C158.832 47.1382 158.329 47.5655 157.481 47.5655C156.252 47.5655 155.544 46.7733 155.544 45.5627V42.7943C155.544 42.4561 155.823 42.189 156.168 42.189C156.513 42.189 156.801 42.4561 156.801 42.7943V45.2155C156.801 46.0256 157.221 46.4796 157.966 46.4796C158.711 46.4796 159.196 46.0078 159.196 45.1977V42.8032C159.196 42.465 159.475 42.1979 159.829 42.1979C160.183 42.1979 160.463 42.465 160.463 42.8032V46.9246L160.453 46.9157Z" fill="#003462"/>
<path d="M162.271 46.0166V43.2749H162.066C161.768 43.2749 161.525 43.0435 161.525 42.7586C161.525 42.4738 161.758 42.2424 162.066 42.2424H162.271V41.3522C162.271 41.0229 162.55 40.7558 162.904 40.7558C163.258 40.7558 163.528 41.0229 163.528 41.3522V42.2424H164.507C164.805 42.2424 165.056 42.4738 165.056 42.7586C165.056 43.0435 164.805 43.2749 164.507 43.2749H163.528V45.8297C163.528 46.2925 163.78 46.4795 164.199 46.4795C164.348 46.4795 164.469 46.4528 164.507 46.4528C164.786 46.4528 165.038 46.6664 165.038 46.9424C165.038 47.156 164.879 47.334 164.712 47.4052C164.441 47.4942 164.181 47.5476 163.854 47.5476C162.932 47.5476 162.289 47.1649 162.289 46.0166H162.271Z" fill="#003462"/>
<path d="M165.802 44.8778V44.86C165.802 43.3823 167.003 42.1361 168.643 42.1361C169.5 42.1361 170.087 42.4031 170.553 42.7859C170.637 42.8571 170.748 42.9995 170.748 43.2043C170.748 43.5069 170.488 43.7473 170.171 43.7473C170.012 43.7473 169.882 43.685 169.798 43.6316C169.481 43.3734 169.127 43.1865 168.634 43.1865C167.721 43.1865 167.05 43.9342 167.05 44.8421V44.86C167.05 45.7857 167.721 46.5245 168.68 46.5245C169.174 46.5245 169.556 46.3376 169.901 46.0617C169.975 45.9994 170.096 45.937 170.245 45.937C170.544 45.937 170.786 46.1774 170.786 46.4622C170.786 46.6225 170.721 46.7471 170.609 46.8361C170.124 47.2812 169.537 47.5749 168.624 47.5749C167.003 47.5749 165.802 46.3643 165.802 44.8867V44.8778Z" fill="#003462"/>
<path d="M171.551 44.8778V44.86C171.551 43.3734 172.79 42.1361 174.467 42.1361C176.144 42.1361 177.364 43.3467 177.364 44.8421V44.86C177.364 46.3376 176.125 47.5749 174.439 47.5749C172.753 47.5749 171.551 46.3643 171.551 44.8867V44.8778ZM176.116 44.8778V44.86C176.116 43.9431 175.426 43.1865 174.439 43.1865C173.451 43.1865 172.799 43.9342 172.799 44.8421V44.86C172.799 45.7679 173.489 46.5245 174.457 46.5245C175.426 46.5245 176.106 45.7768 176.106 44.8778H176.116Z" fill="#003462"/>
<path d="M178.632 42.794C178.632 42.4558 178.902 42.1887 179.247 42.1887C179.591 42.1887 179.88 42.4558 179.88 42.794V43.0433C180.234 42.5804 180.709 42.1442 181.539 42.1442C182.321 42.1442 182.88 42.5092 183.169 43.0611C183.607 42.5092 184.185 42.1442 185.005 42.1442C186.188 42.1442 186.915 42.8653 186.915 44.1382V46.9244C186.915 47.2626 186.644 47.5118 186.3 47.5118C185.955 47.5118 185.666 47.2537 185.666 46.9244V44.5031C185.666 43.6753 185.266 43.2302 184.557 43.2302C183.849 43.2302 183.393 43.6842 183.393 44.5209V46.9154C183.393 47.2537 183.113 47.5029 182.769 47.5029C182.424 47.5029 182.135 47.2448 182.135 46.9154V44.4853C182.135 43.6753 181.725 43.2213 181.026 43.2213C180.327 43.2213 179.862 43.7109 179.862 44.512V46.9065C179.862 47.2448 179.582 47.494 179.228 47.494C178.874 47.494 178.613 47.2359 178.613 46.9065V42.7851L178.632 42.794Z" fill="#003462"/>
<path d="M190.949 47.5749C189.365 47.5749 188.154 46.48 188.154 44.8688V44.8511C188.154 43.3645 189.262 42.1361 190.818 42.1361C192.551 42.1361 193.408 43.498 193.408 44.6997C193.408 45.038 193.138 45.2694 192.821 45.2694H189.402C189.533 46.1151 190.166 46.5957 190.967 46.5957C191.498 46.5957 191.908 46.4177 192.262 46.1418C192.355 46.0706 192.439 46.035 192.579 46.035C192.859 46.035 193.073 46.2397 193.073 46.5156C193.073 46.667 192.998 46.7916 192.905 46.8806C192.411 47.3079 191.787 47.5749 190.939 47.5749H190.949ZM192.188 44.4861C192.104 43.7206 191.629 43.1153 190.809 43.1153C190.045 43.1153 189.505 43.6761 189.393 44.4861H192.188Z" fill="#003462"/>
<path d="M194.481 46.9336C194.35 46.8624 194.248 46.7199 194.248 46.5152C194.248 46.2482 194.462 46.0345 194.751 46.0345C194.853 46.0345 194.947 46.0612 195.021 46.1057C195.543 46.444 196.092 46.6131 196.586 46.6131C197.127 46.6131 197.434 46.3995 197.434 46.0523V46.0345C197.434 45.634 196.856 45.4915 196.214 45.3046C195.412 45.091 194.509 44.7705 194.509 43.7736V43.7557C194.509 42.7677 195.366 42.1713 196.446 42.1713C197.024 42.1713 197.63 42.3315 198.161 42.5985C198.338 42.6876 198.459 42.8478 198.459 43.0525C198.459 43.3285 198.235 43.5332 197.946 43.5332C197.844 43.5332 197.779 43.5154 197.695 43.4709C197.248 43.2573 196.8 43.1148 196.419 43.1148C195.934 43.1148 195.655 43.3285 195.655 43.6311V43.6489C195.655 44.0317 196.242 44.1919 196.884 44.3878C197.676 44.6281 198.58 44.9663 198.58 45.9099V45.9277C198.58 47.0226 197.695 47.5656 196.558 47.5656C195.869 47.5656 195.114 47.3609 194.481 46.9425V46.9336Z" fill="#003462"/>
<path d="M203.107 41.1649C203.107 40.8178 203.387 40.5507 203.75 40.5507H205.8C208.073 40.5507 209.638 42.0373 209.638 43.9867V44.0045C209.638 45.945 208.073 47.4583 205.8 47.4583H203.75C203.387 47.4583 203.107 47.1912 203.107 46.8441V41.1649ZM205.8 46.3545C207.318 46.3545 208.306 45.3753 208.306 44.0223V44.0045C208.306 42.6515 207.318 41.6545 205.8 41.6545H204.374V46.3545H205.8Z" fill="#003462"/>
<path d="M211.047 42.7943C211.047 42.4561 211.317 42.189 211.662 42.189C212.006 42.189 212.295 42.4561 212.295 42.7943V43.3284C212.584 42.6786 213.124 42.189 213.665 42.189C214.056 42.189 214.28 42.4383 214.28 42.7765C214.28 43.0881 214.065 43.3017 213.786 43.3462C212.901 43.4975 212.286 44.1473 212.286 45.3758V46.9157C212.286 47.2451 212.006 47.5032 211.652 47.5032C211.298 47.5032 211.038 47.2451 211.038 46.9157V42.7943H211.047Z" fill="#003462"/>
<path d="M215.286 40.8449C215.286 40.4888 215.594 40.2663 215.994 40.2663C216.395 40.2663 216.702 40.4888 216.702 40.8449V40.9072C216.702 41.2633 216.395 41.5036 215.994 41.5036C215.594 41.5036 215.286 41.2633 215.286 40.9072V40.8449ZM215.38 42.7943C215.38 42.4561 215.65 42.189 215.994 42.189C216.339 42.189 216.628 42.4561 216.628 42.7943V46.9157C216.628 47.254 216.348 47.5032 215.994 47.5032C215.64 47.5032 215.38 47.2451 215.38 46.9157V42.7943Z" fill="#003462"/>
<path d="M220.54 47.5566H220.475C220.13 47.5566 219.907 47.3519 219.767 47.0314L217.95 43.0525C217.922 42.9635 217.876 42.8655 217.876 42.7587C217.876 42.465 218.155 42.189 218.5 42.189C218.845 42.189 219.012 42.3759 219.124 42.6252L220.531 46.079L221.956 42.6074C222.049 42.4027 222.217 42.189 222.543 42.189C222.869 42.189 223.149 42.4383 223.149 42.7587C223.149 42.8655 223.111 42.9902 223.074 43.0436L221.258 47.0314C221.108 47.3341 220.885 47.5566 220.549 47.5566H220.54Z" fill="#003462"/>
<path d="M226.587 47.5749C225.003 47.5749 223.792 46.48 223.792 44.8688V44.8511C223.792 43.3645 224.901 42.1361 226.457 42.1361C228.19 42.1361 229.047 43.498 229.047 44.6997C229.047 45.038 228.776 45.2694 228.46 45.2694H225.041C225.171 46.1151 225.805 46.5957 226.606 46.5957C227.137 46.5957 227.547 46.4177 227.901 46.1418C227.994 46.0706 228.078 46.035 228.217 46.035C228.497 46.035 228.711 46.2397 228.711 46.5156C228.711 46.667 228.637 46.7916 228.544 46.8806C228.05 47.3079 227.426 47.5749 226.578 47.5749H226.587ZM227.826 44.4861C227.742 43.7206 227.267 43.1153 226.447 43.1153C225.683 43.1153 225.143 43.6761 225.031 44.4861H227.826Z" fill="#003462"/>
<path d="M230.333 42.794C230.333 42.4558 230.603 42.1887 230.947 42.1887C231.292 42.1887 231.581 42.4558 231.581 42.794V43.0522C231.935 42.5715 232.438 42.1442 233.286 42.1442C234.516 42.1442 235.224 42.9365 235.224 44.1382V46.9244C235.224 47.2626 234.953 47.5118 234.609 47.5118C234.264 47.5118 233.975 47.2537 233.975 46.9244V44.5031C233.975 43.6931 233.556 43.2302 232.811 43.2302C232.065 43.2302 231.581 43.7109 231.581 44.5209V46.9154C231.581 47.2537 231.301 47.5029 230.947 47.5029C230.593 47.5029 230.333 47.2448 230.333 46.9154V42.794Z" fill="#003462"/>
<path d="M239.659 44.0229V44.0051C239.659 42.0379 241.197 40.4356 243.386 40.4356C244.504 40.4356 245.231 40.7472 245.864 41.2189C245.994 41.3169 246.116 41.486 246.116 41.6996C246.116 42.0379 245.836 42.296 245.482 42.296C245.305 42.296 245.184 42.2337 245.1 42.1803C244.606 41.7975 244.066 41.5572 243.377 41.5572C242.007 41.5572 240.992 42.6432 240.992 43.9962V44.014C240.992 45.367 241.988 46.4619 243.377 46.4619C244.141 46.4619 244.653 46.2216 245.184 45.8032C245.277 45.7231 245.408 45.6697 245.566 45.6697C245.883 45.6697 246.162 45.9278 246.162 46.2305C246.162 46.4174 246.069 46.5687 245.957 46.6667C245.277 47.2364 244.504 47.5924 243.339 47.5924C241.234 47.5924 239.659 46.0257 239.659 44.0407V44.0229Z" fill="#003462"/>
<path d="M247.057 44.8778V44.86C247.057 43.3734 248.296 42.1361 249.973 42.1361C251.65 42.1361 252.87 43.3467 252.87 44.8421V44.86C252.87 46.3376 251.631 47.5749 249.945 47.5749C248.259 47.5749 247.057 46.3643 247.057 44.8867V44.8778ZM251.622 44.8778V44.86C251.622 43.9431 250.932 43.1865 249.945 43.1865C248.957 43.1865 248.305 43.9342 248.305 44.8421V44.86C248.305 45.7679 248.995 46.5245 249.964 46.5245C250.932 46.5245 251.613 45.7768 251.613 44.8778H251.622Z" fill="#003462"/>
<path d="M259.505 46.9154C259.505 47.2537 259.225 47.5029 258.881 47.5029C258.536 47.5029 258.247 47.2448 258.247 46.9154V46.5861C257.846 47.1291 257.278 47.5652 256.384 47.5652C255.108 47.5652 253.859 46.5861 253.859 44.8592V44.8413C253.859 43.1145 255.089 42.1353 256.384 42.1353C257.278 42.1353 257.846 42.5626 258.247 43.0522V40.7912C258.247 40.4529 258.527 40.1948 258.862 40.1948C259.197 40.1948 259.495 40.4529 259.495 40.7912V46.9065L259.505 46.9154ZM255.126 44.8413V44.8592C255.126 45.865 255.853 46.5237 256.691 46.5237C257.53 46.5237 258.275 45.8561 258.275 44.8592V44.8413C258.275 43.8355 257.53 43.1768 256.691 43.1768C255.853 43.1768 255.126 43.8088 255.126 44.8413Z" fill="#003462"/>
<path d="M261.052 40.8449C261.052 40.4888 261.359 40.2663 261.76 40.2663C262.16 40.2663 262.468 40.4888 262.468 40.8449V40.9072C262.468 41.2633 262.16 41.5036 261.76 41.5036C261.359 41.5036 261.052 41.2633 261.052 40.9072V40.8449ZM261.145 42.7943C261.145 42.4561 261.415 42.189 261.76 42.189C262.104 42.189 262.393 42.4561 262.393 42.7943V46.9157C262.393 47.254 262.114 47.5032 261.76 47.5032C261.406 47.5032 261.145 47.2451 261.145 46.9157V42.7943Z" fill="#003462"/>
<path d="M264.033 42.794C264.033 42.4558 264.304 42.1887 264.658 42.1887C265.012 42.1887 265.291 42.4558 265.291 42.794V43.0522C265.645 42.5715 266.148 42.1442 266.996 42.1442C268.226 42.1442 268.934 42.9365 268.934 44.1382V46.9244C268.934 47.2626 268.664 47.5118 268.319 47.5118C267.974 47.5118 267.685 47.2537 267.685 46.9244V44.5031C267.685 43.6931 267.266 43.2302 266.521 43.2302C265.776 43.2302 265.291 43.7109 265.291 44.5209V46.9154C265.291 47.2537 265.012 47.5029 264.658 47.5029C264.304 47.5029 264.033 47.2448 264.033 46.9154V42.794Z" fill="#003462"/>
<path d="M270.759 48.5889C270.545 48.5088 270.405 48.3397 270.405 48.1172C270.405 47.8501 270.638 47.6276 270.936 47.6276C271.029 47.6276 271.104 47.6454 271.16 47.681C271.653 47.948 272.203 48.0993 272.837 48.0993C273.955 48.0993 274.56 47.5475 274.56 46.4971V46.0965C274.104 46.6573 273.535 47.049 272.641 47.049C271.365 47.049 270.163 46.141 270.163 44.61V44.5921C270.163 43.0522 271.374 42.1442 272.641 42.1442C273.563 42.1442 274.132 42.5448 274.551 43.0344V42.7851C274.551 42.4558 274.83 42.1887 275.166 42.1887C275.501 42.1887 275.799 42.4558 275.799 42.794V46.3991C275.799 47.2804 275.566 47.9302 275.11 48.3664C274.616 48.8382 273.852 49.0696 272.874 49.0696C272.11 49.0696 271.43 48.9094 270.768 48.6067L270.759 48.5889ZM274.569 44.5921V44.5743C274.569 43.7287 273.833 43.1412 272.967 43.1412C272.101 43.1412 271.421 43.7109 271.421 44.5743V44.5921C271.421 45.4378 272.11 46.0253 272.967 46.0253C273.824 46.0253 274.569 45.4467 274.569 44.5921Z" fill="#003462"/>
<defs>
<linearGradient id="paint0_linear_2071_1100" x1="1.10176" y1="-197.546" x2="19.7827" y2="-197.546" gradientUnits="userSpaceOnUse">
<stop stop-color="#916401"/>
<stop offset="1" stop-color="#FFC94D"/>
</linearGradient>
<linearGradient id="paint1_linear_2071_1100" x1="298.898" y1="22.0091" x2="281.069" y2="40.6707" gradientUnits="userSpaceOnUse">
<stop stop-color="#916401"/>
<stop offset="1" stop-color="#FFC94D"/>
</linearGradient>
</defs>
</svg>
