<svg width="194" height="56" viewBox="0 0 194 56" fill="none" xmlns="http://www.w3.org/2000/svg">
<g clip-path="url(#clip0_2071_231)">
<path d="M63.2776 36.5732H75.2296V32.9732H67.5256V19.4132H63.2776V36.5732Z" fill="#A7A7A7"/>
<path d="M82.3105 34.1732C80.6065 34.1732 79.7185 32.6852 79.7185 30.4532C79.7185 28.2212 80.6065 26.7092 82.3105 26.7092C84.0145 26.7092 84.9265 28.2212 84.9265 30.4532C84.9265 32.6852 84.0145 34.1732 82.3105 34.1732ZM82.3345 36.9572C86.2945 36.9572 88.8865 34.1492 88.8865 30.4532C88.8865 26.7572 86.2945 23.9492 82.3345 23.9492C78.3985 23.9492 75.7585 26.7572 75.7585 30.4532C75.7585 34.1492 78.3985 36.9572 82.3345 36.9572Z" fill="#A7A7A7"/>
<path d="M95.7411 40.8212C97.5651 40.8212 99.1731 40.4132 100.253 39.4532C101.237 38.5652 101.885 37.2212 101.885 35.3732V24.2852H98.1411V25.6052H98.0931C97.3731 24.5732 96.2691 23.9252 94.6371 23.9252C91.5891 23.9252 89.4771 26.4692 89.4771 30.0692C89.4771 33.8372 92.0451 35.9012 94.8051 35.9012C96.2931 35.9012 97.2291 35.3012 97.9491 34.4852H98.0451V35.7092C98.0451 37.1972 97.3491 38.0612 95.6931 38.0612C94.3971 38.0612 93.7491 37.5092 93.5331 36.8612H89.7411C90.1251 39.4292 92.3571 40.8212 95.7411 40.8212ZM95.7171 32.9972C94.2531 32.9972 93.2931 31.7972 93.2931 29.9492C93.2931 28.0772 94.2531 26.8772 95.7171 26.8772C97.3491 26.8772 98.2131 28.2692 98.2131 29.9252C98.2131 31.6532 97.4211 32.9972 95.7171 32.9972Z" fill="#A7A7A7"/>
<path d="M109.583 34.1732C107.879 34.1732 106.991 32.6852 106.991 30.4532C106.991 28.2212 107.879 26.7092 109.583 26.7092C111.287 26.7092 112.199 28.2212 112.199 30.4532C112.199 32.6852 111.287 34.1732 109.583 34.1732ZM109.607 36.9572C113.567 36.9572 116.159 34.1492 116.159 30.4532C116.159 26.7572 113.567 23.9492 109.607 23.9492C105.671 23.9492 103.031 26.7572 103.031 30.4532C103.031 34.1492 105.671 36.9572 109.607 36.9572Z" fill="#A7A7A7"/>
<path d="M117.302 36.5732H121.214V24.2852H117.302V36.5732ZM117.302 22.5812H121.214V19.4132H117.302V22.5812Z" fill="#A7A7A7"/>
<path d="M122.911 40.6292H126.823V35.3012H126.871C127.639 36.3332 128.767 36.9572 130.351 36.9572C133.567 36.9572 135.703 34.4132 135.703 30.4292C135.703 26.7332 133.711 23.9252 130.447 23.9252C128.767 23.9252 127.567 24.6692 126.727 25.7732H126.655V24.2852H122.911V40.6292ZM129.343 33.9332C127.663 33.9332 126.703 32.5652 126.703 30.5732C126.703 28.5812 127.567 27.0692 129.271 27.0692C130.951 27.0692 131.743 28.4612 131.743 30.5732C131.743 32.6612 130.831 33.9332 129.343 33.9332Z" fill="#A7A7A7"/>
<path d="M142.072 36.9572C145.288 36.9572 147.664 35.5652 147.664 32.8772C147.664 29.7332 145.12 29.1812 142.96 28.8212C141.4 28.5332 140.008 28.4132 140.008 27.5492C140.008 26.7812 140.752 26.4212 141.712 26.4212C142.792 26.4212 143.536 26.7572 143.68 27.8612H147.28C147.088 25.4372 145.216 23.9252 141.736 23.9252C138.832 23.9252 136.432 25.2692 136.432 27.8612C136.432 30.7412 138.712 31.3172 140.848 31.6772C142.48 31.9652 143.968 32.0852 143.968 33.1892C143.968 33.9812 143.224 34.4132 142.048 34.4132C140.752 34.4132 139.936 33.8132 139.792 32.5892H136.096C136.216 35.3012 138.472 36.9572 142.072 36.9572Z" fill="#A7A7A7"/>
<path d="M152.978 36.9332C154.682 36.9332 155.762 36.2612 156.65 35.0612H156.722V36.5732H160.466V24.2852H156.554V31.1492C156.554 32.6132 155.738 33.6212 154.394 33.6212C153.146 33.6212 152.546 32.8772 152.546 31.5332V24.2852H148.658V32.3492C148.658 35.0852 150.146 36.9332 152.978 36.9332Z" fill="#A7A7A7"/>
<path d="M162.168 36.5732H166.08V29.6852C166.08 28.2212 166.8 27.1892 168.024 27.1892C169.2 27.1892 169.752 27.9572 169.752 29.2772V36.5732H173.664V29.6852C173.664 28.2212 174.36 27.1892 175.608 27.1892C176.784 27.1892 177.336 27.9572 177.336 29.2772V36.5732H181.248V28.5812C181.248 25.8212 179.856 23.9252 177.072 23.9252C175.488 23.9252 174.168 24.5972 173.208 26.0852H173.16C172.536 24.7652 171.312 23.9252 169.704 23.9252C167.928 23.9252 166.752 24.7652 165.984 26.0372H165.912V24.2852H162.168V36.5732Z" fill="#A7A7A7"/>
<path fill-rule="evenodd" clip-rule="evenodd" d="M32.1013 47.5732C43.1471 47.5732 52.1013 38.6189 52.1013 27.5732C52.1013 16.5275 43.1471 7.57324 32.1013 7.57324C21.0556 7.57324 12.1013 16.5275 12.1013 27.5732C12.1013 38.6189 21.0556 47.5732 32.1013 47.5732ZM35.1883 23.0258C36.8931 21.3209 36.8931 18.5568 35.1883 16.8519C33.4834 15.147 30.7193 15.147 29.0144 16.8519C27.3096 18.5568 27.3096 21.3209 29.0144 23.0258L32.1013 26.1127L35.1883 23.0258ZM36.6488 30.6602C38.3537 32.3651 41.1178 32.3651 42.8227 30.6602C44.5275 28.9553 44.5275 26.1912 42.8227 24.4863C41.1178 22.7815 38.3537 22.7815 36.6488 24.4863L33.5619 27.5733L36.6488 30.6602ZM35.1883 38.2946C36.8931 36.5897 36.8931 33.8256 35.1883 32.1207L32.1013 29.0338L29.0144 32.1207C27.3096 33.8256 27.3096 36.5897 29.0144 38.2946C30.7193 39.9995 33.4834 39.9995 35.1883 38.2946ZM21.3799 30.6602C19.6751 28.9553 19.6751 26.1912 21.3799 24.4863C23.0849 22.7815 25.849 22.7815 27.5539 24.4863L30.6408 27.5733L27.5539 30.6602C25.849 32.3651 23.0849 32.3651 21.3799 30.6602Z" fill="#A7A7A7"/>
</g>
<defs>
<clipPath id="clip0_2071_231">
<rect width="170" height="41" fill="white" transform="translate(12 7.25)"/>
</clipPath>
</defs>
</svg>
