<svg width="106" height="42" viewBox="0 0 106 42" fill="none" xmlns="http://www.w3.org/2000/svg">
<path d="M21.603 21.041C21.603 19.5442 22.481 18.5015 23.8227 18.5015C25.1645 18.5015 26.0424 19.5442 26.0424 21.041C26.0424 22.5211 25.1645 23.5805 23.8227 23.5805C22.481 23.5805 21.603 22.5211 21.603 21.041Z" fill="#A7A7A7"/>
<path d="M32.9503 18.4343C31.6748 18.4343 30.8135 19.4433 30.8135 20.8224C30.8135 22.2183 31.6914 23.261 32.9503 23.261C34.3417 23.261 35.2694 22.2015 35.2694 20.8224C35.2694 19.4602 34.3417 18.4343 32.9503 18.4343Z" fill="#A7A7A7"/>
<path d="M40.3445 21.041C40.3445 19.5442 41.2224 18.5015 42.5642 18.5015C43.9059 18.5015 44.7838 19.5442 44.7838 21.041C44.7838 22.5211 43.9059 23.5805 42.5642 23.5805C41.2224 23.5805 40.3445 22.5211 40.3445 21.041Z" fill="#A7A7A7"/>
<path d="M53.8433 21.0579C53.8433 19.5611 54.7378 18.5184 56.1457 18.5184C57.5538 18.5184 58.3985 19.5779 58.3985 21.0579C58.3985 22.5378 57.5538 23.5805 56.1457 23.5805C54.7378 23.5805 53.8433 22.5546 53.8433 21.0579Z" fill="#A7A7A7"/>
<path fill-rule="evenodd" clip-rule="evenodd" d="M53.0001 38.6356C81.1452 38.6356 103.961 30.5072 103.961 20.4803C103.961 10.4533 81.1452 2.32492 53.0001 2.32492C24.8548 2.32492 2.03857 10.4533 2.03857 20.4803C2.03857 30.5072 24.8548 38.6356 53.0001 38.6356ZM18.3287 25.2119V12.6994H16.3078V25.2119H18.3287ZM19.5656 21.041C19.5656 23.5973 21.2552 25.4137 23.8228 25.4137C26.3903 25.4137 28.0799 23.5973 28.0799 21.041C28.0799 18.4847 26.3903 16.6684 23.8228 16.6684C21.2552 16.6684 19.5656 18.4847 19.5656 21.041ZM32.6026 25.0437C30.3001 25.0437 28.7595 23.2947 28.7595 20.8729C28.7595 18.4343 30.3332 16.6348 32.6688 16.6348C33.8781 16.6348 34.9051 17.1562 35.402 18.0307L35.518 16.9038H37.3069V24.7915C37.3069 27.5328 35.6174 29.2986 32.967 29.2986C30.7142 29.2986 29.0743 27.8859 28.8093 25.7164H30.8467C30.9626 26.8096 31.8241 27.4319 33.0829 27.4319C34.491 27.4319 35.3358 26.5237 35.3358 25.1614V23.7488C34.8222 24.556 33.7952 25.0437 32.6026 25.0437ZM38.307 21.041C38.307 23.5973 39.9967 25.4137 42.5642 25.4137C45.1317 25.4137 46.8213 23.5973 46.8213 21.041C46.8213 18.4847 45.1317 16.6684 42.5642 16.6684C39.9967 16.6684 38.307 18.4847 38.307 21.041ZM50.2176 13.9776C50.2176 14.6671 49.671 15.2053 49.0084 15.2053C48.3293 15.2053 47.8157 14.6671 47.8157 13.9776C47.8157 13.3048 48.3293 12.7667 49.0084 12.7667C49.671 12.7667 50.2176 13.3048 50.2176 13.9776ZM50.0188 16.9038V25.2119H47.998V16.9038H50.0188ZM51.7893 29.0632H53.7606V24.0683C54.274 24.926 55.3838 25.4305 56.6097 25.4305C59.0281 25.4305 60.4692 23.5469 60.4361 20.9569C60.3864 18.3502 58.9121 16.6516 56.5931 16.6516C55.3508 16.6516 54.2243 17.2066 53.7274 18.1652L53.6114 16.9038H51.7893V29.0632ZM64.229 25.4305C62.2744 25.4305 61.0155 24.371 60.9493 22.7228H62.7879C62.7879 23.446 63.3014 23.8664 64.1959 23.8664C64.9414 23.8664 65.5542 23.5638 65.5542 22.9078C65.5542 22.4369 65.2229 22.1846 64.6928 22.0333L63.2683 21.6633C61.6947 21.2429 61.0818 20.3515 61.0818 19.2752C61.0818 17.6943 62.3904 16.6516 64.1462 16.6516C65.9186 16.6516 67.1279 17.6943 67.1941 19.3425H65.3555C65.3555 18.6193 64.8585 18.182 64.0965 18.182C63.3677 18.182 62.9204 18.5856 62.9204 19.1575C62.9204 19.6957 63.3345 19.9143 63.9474 20.0824L65.3886 20.4356C66.7304 20.7719 67.4591 21.5792 67.4591 22.7733C67.4591 24.3878 66.1505 25.4305 64.229 25.4305ZM71.6512 25.4305C72.7606 25.4305 73.8206 24.9091 74.3012 24.1355L74.434 25.2119H76.3222V16.9038H74.3012V21.2597C74.3012 22.7565 73.7379 23.5973 72.4129 23.5973C71.3862 23.5973 70.6738 23.0928 70.6738 21.3774V16.9038H68.6527V22.1006C68.6527 24.0851 69.7128 25.4305 71.6512 25.4305ZM80.1269 20.4356V25.2119H78.1059V16.9038H79.9609L80.0605 17.8457C80.541 17.1057 81.4025 16.6516 82.3628 16.6516C83.721 16.6516 84.6157 17.257 85.063 18.2325C85.4608 17.257 86.4382 16.6516 87.6805 16.6516C89.6683 16.6516 90.7114 17.8625 90.7114 19.7797V25.2119H88.7567V20.2506C88.7567 19.0734 88.1278 18.4511 87.1505 18.4511C86.1894 18.4511 85.4276 19.0902 85.4276 20.4524V25.2119H83.456V20.2506C83.456 19.0734 82.8271 18.4511 81.866 18.4511C80.9057 18.4511 80.1269 19.0902 80.1269 20.4356Z" fill="#A7A7A7"/>
</svg>
