<svg width="185" height="56" viewBox="0 0 185 56" fill="none" xmlns="http://www.w3.org/2000/svg">
<path d="M66.1958 34.75H69.7148V18.19H66.1958V34.75Z" fill="#A7A7A7"/>
<path d="M76.9338 35.118C80.6138 35.118 83.0288 32.749 83.0288 28.563C83.0288 24.515 80.6828 21.985 76.9338 21.985C73.2538 21.985 70.8618 24.354 70.8618 28.563C70.8618 32.634 73.1848 35.118 76.9338 35.118ZM76.9338 32.266C75.3468 32.266 74.4728 30.955 74.4728 28.563C74.4728 26.148 75.3238 24.837 76.9338 24.837C78.5438 24.837 79.4178 26.171 79.4178 28.563C79.4178 30.978 78.5668 32.266 76.9338 32.266Z" fill="#A7A7A7"/>
<path d="M88.7539 34.773C90.0879 34.773 91.1919 34.221 91.9739 33.14V35.21C91.9739 36.935 91.1229 37.51 89.8579 37.51C88.6389 37.51 87.6959 36.912 87.5579 35.808H84.0389C84.4759 38.821 86.7529 40.201 89.9039 40.201C93.1469 40.201 95.4929 38.476 95.4929 35.164V22.376H91.9739V23.526C91.2149 22.514 90.1339 21.985 88.7539 21.985C85.6719 21.985 83.6709 24.285 83.6709 28.402C83.6709 32.335 85.6259 34.773 88.7539 34.773ZM89.6049 31.921C88.0869 31.921 87.2819 30.656 87.2819 28.402C87.2819 26.079 88.0869 24.837 89.6049 24.837C91.1459 24.837 91.9739 26.102 91.9739 28.379C91.9739 30.679 91.1689 31.921 89.6049 31.921Z" fill="#A7A7A7"/>
<path d="M102.732 35.118C106.412 35.118 108.827 32.749 108.827 28.563C108.827 24.515 106.481 21.985 102.732 21.985C99.0517 21.985 96.6597 24.354 96.6597 28.563C96.6597 32.634 98.9827 35.118 102.732 35.118ZM102.732 32.266C101.145 32.266 100.271 30.955 100.271 28.563C100.271 26.148 101.122 24.837 102.732 24.837C104.342 24.837 105.216 26.171 105.216 28.563C105.216 30.978 104.365 32.266 102.732 32.266Z" fill="#A7A7A7"/>
<path d="M109.998 21.134H113.517V18.19H109.998V21.134ZM109.998 34.75H113.517V22.376H109.998V34.75Z" fill="#A7A7A7"/>
<path d="M118.711 39.833V33.508C119.447 34.566 120.505 35.118 121.816 35.118C124.967 35.118 127.014 32.749 127.014 28.54C127.014 24.492 125.013 21.985 121.816 21.985C120.528 21.985 119.47 22.583 118.711 23.664V22.376H115.192V39.833H118.711ZM121.08 24.837C122.575 24.837 123.403 26.148 123.403 28.54C123.403 30.955 122.598 32.266 121.08 32.266C119.539 32.266 118.711 30.932 118.711 28.54C118.711 26.148 119.516 24.837 121.08 24.837Z" fill="#A7A7A7"/>
<path d="M131.24 25.803C131.24 25.136 131.838 24.676 132.758 24.676C134 24.676 134.736 25.205 134.943 26.47H138.439C138.094 23.342 135.84 21.985 132.873 21.985C129.561 21.985 127.882 23.917 127.882 25.987C127.882 30.955 135.38 28.816 135.38 31.208C135.38 31.967 134.759 32.45 133.517 32.45C132.206 32.45 131.263 31.829 131.102 30.679H127.583C128.043 33.738 130.297 35.118 133.425 35.118C136.645 35.118 138.899 33.439 138.899 31.001C138.899 26.102 131.24 28.241 131.24 25.803Z" fill="#A7A7A7"/>
<path d="M147.569 29.483C147.569 31.07 146.695 32.266 145.338 32.266C144.096 32.266 143.498 31.484 143.498 29.897V22.376H139.979V30.61C139.979 33.692 141.704 35.118 144.05 35.118C145.545 35.118 146.764 34.474 147.569 33.094V34.75H151.088V22.376H147.569V29.483Z" fill="#A7A7A7"/>
<path d="M152.788 34.75H156.307V27.643C156.307 26.056 157.112 24.837 158.331 24.837C159.458 24.837 160.01 25.642 160.01 27.206V34.75H163.506V27.643C163.506 26.056 164.334 24.837 165.553 24.837C166.68 24.837 167.209 25.642 167.209 27.206V34.75H170.728V26.493C170.728 23.434 169.026 21.985 166.726 21.985C165.185 21.985 163.874 22.629 163.023 24.032C162.402 22.652 161.16 21.985 159.688 21.985C158.262 21.985 157.089 22.606 156.307 23.94V22.376H152.788V34.75Z" fill="#A7A7A7"/>
<path d="M52.8504 39.8026C56.6624 36.3986 59 31.8048 59 26.75C59 16.2566 48.9264 7.75 36.5 7.75C24.0736 7.75 14 16.2566 14 26.75C14 37.2434 24.0736 45.75 36.5 45.75C40.0253 45.75 43.3613 45.0654 46.3316 43.8449C49.8208 45.9986 54.0957 47.5467 58.8169 47.2202C56.3227 46.5862 54.1773 44.0179 52.8504 39.8026Z" fill="#DFDFDF"/>
<path d="M53 26.75C53 34.482 45.6127 40.75 36.5 40.75C27.3873 40.75 20 34.482 20 26.75C20 19.018 27.3873 12.75 36.5 12.75C45.6127 12.75 53 19.018 53 26.75Z" fill="#DFDFDF"/>
<path d="M47 26.75C47 31.7206 42.299 35.75 36.5 35.75C30.701 35.75 26 31.7206 26 26.75C26 21.7794 30.701 17.75 36.5 17.75C42.299 17.75 47 21.7794 47 26.75Z" fill="#A7A7A7"/>
</svg>
