<svg width="179" height="56" viewBox="0 0 179 56" fill="none" xmlns="http://www.w3.org/2000/svg">
<g clip-path="url(#clip0_2071_260)">
<path d="M63.5821 18.0339H60V34.1972H69.9164V31.0301H63.5821V18.0339Z" fill="#A7A7A7"/>
<path d="M70.2585 28.7148C70.2585 32.1659 72.5738 34.4593 76.0685 34.4593C79.5414 34.4593 81.8567 32.1659 81.8567 28.7148C81.8567 25.2637 79.5414 22.9484 76.0685 22.9484C72.5738 22.9484 70.2585 25.2637 70.2585 28.7148ZM73.644 28.6929C73.644 27.0548 74.6051 25.9627 76.0685 25.9627C77.5101 25.9627 78.4712 27.0548 78.4712 28.6929C78.4712 30.353 77.5101 31.4451 76.0685 31.4451C74.6051 31.4451 73.644 30.353 73.644 28.6929Z" fill="#A7A7A7"/>
<path d="M82.3977 28.5401C82.3977 31.8382 84.5383 34.0661 87.5743 34.0661C89.0378 34.0661 90.3046 33.5419 90.938 32.6901V34.1972C90.938 35.7043 89.9988 36.709 88.3388 36.709C86.8535 36.709 85.8269 36.0101 85.7614 34.7651H82.354C82.6598 37.7575 84.9751 39.7669 88.1422 39.7669C91.8772 39.7669 94.2362 37.3425 94.2362 33.4982V23.2761H91.2001L91.0254 24.39C90.4138 23.4945 89.1251 22.9048 87.6399 22.9048C84.5819 22.9048 82.3977 25.1982 82.3977 28.5401ZM85.8051 28.4527C85.8051 26.88 86.8535 25.8316 88.1859 25.8316C89.7367 25.8316 90.8725 26.8582 90.8725 28.4527C90.8725 30.0472 89.7585 31.1393 88.2077 31.1393C86.8754 31.1393 85.8051 30.0472 85.8051 28.4527Z" fill="#A7A7A7"/>
<path d="M95.2166 28.7148C95.2166 32.1659 97.5319 34.4593 101.027 34.4593C104.5 34.4593 106.815 32.1659 106.815 28.7148C106.815 25.2637 104.5 22.9484 101.027 22.9484C97.5319 22.9484 95.2166 25.2637 95.2166 28.7148ZM98.6022 28.6929C98.6022 27.0548 99.5632 25.9627 101.027 25.9627C102.468 25.9627 103.429 27.0548 103.429 28.6929C103.429 30.353 102.468 31.4451 101.027 31.4451C99.5632 31.4451 98.6022 30.353 98.6022 28.6929Z" fill="#A7A7A7"/>
<path d="M109.715 21.5724C110.763 21.5724 111.615 20.7205 111.615 19.6503C111.615 18.58 110.763 17.75 109.715 17.75C108.645 17.75 107.793 18.58 107.793 19.6503C107.793 20.7205 108.645 21.5724 109.715 21.5724ZM108.011 34.1972H111.397V23.2761H108.011V34.1972Z" fill="#A7A7A7"/>
<path d="M113.368 39.4393H116.688V33.1051C117.321 33.9351 118.763 34.503 120.27 34.503C123.524 34.503 125.49 32.013 125.403 28.5619C125.315 25.0453 123.284 22.9266 120.248 22.9266C118.697 22.9266 117.234 23.6037 116.622 24.6085L116.447 23.2761H113.368V39.4393ZM116.753 28.7366C116.753 27.0985 117.845 26.0064 119.418 26.0064C121.012 26.0064 122.017 27.1203 122.017 28.7366C122.017 30.353 121.012 31.4669 119.418 31.4669C117.845 31.4669 116.753 30.3748 116.753 28.7366Z" fill="#A7A7A7"/>
<path d="M125.761 30.7461C125.848 32.9522 127.596 34.4811 130.348 34.4811C132.991 34.4811 134.826 33.0832 134.826 30.8335C134.826 29.2172 133.865 28.1469 132.073 27.71L130.13 27.2295C129.431 27.0548 128.994 26.88 128.994 26.3121C128.994 25.7442 129.452 25.3729 130.13 25.3729C130.894 25.3729 131.396 25.8753 131.375 26.6179H134.411C134.323 24.3463 132.598 22.9266 130.195 22.9266C127.771 22.9266 125.958 24.3682 125.958 26.5524C125.958 28.0158 126.766 29.2172 128.928 29.7851L130.85 30.2874C131.418 30.4403 131.658 30.7024 131.658 31.0737C131.658 31.6198 131.156 31.9693 130.304 31.9693C129.321 31.9693 128.797 31.5106 128.797 30.7461H125.761Z" fill="#A7A7A7"/>
<path d="M139.974 34.4811C141.307 34.4811 142.639 33.8695 143.316 32.974L143.535 34.1972H146.702V23.2761H143.338V28.9551C143.338 30.5932 142.858 31.4887 141.307 31.4887C140.105 31.4887 139.319 30.9427 139.319 28.9114V23.2761H135.955V30.1345C135.955 32.7338 137.397 34.4811 139.974 34.4811Z" fill="#A7A7A7"/>
<path d="M152.036 34.1972V28.2343C152.036 26.3995 153.019 25.8753 153.98 25.8753C155.05 25.8753 155.749 26.5306 155.749 27.8848V34.1972H159.069V28.2343C159.069 26.3777 160.03 25.8535 160.991 25.8535C162.061 25.8535 162.782 26.5087 162.782 27.8848V34.1972H166.059V27.0548C166.059 24.5648 164.748 22.9048 161.93 22.9048C160.358 22.9048 159.069 23.6692 158.501 24.8487C157.846 23.6692 156.71 22.9048 154.897 22.9048C153.696 22.9048 152.582 23.4508 151.927 24.3245L151.796 23.2761H148.65V34.1972H152.036Z" fill="#A7A7A7"/>
<path d="M12 27.75C12 18.3219 12 13.6079 14.9289 10.6789C17.8579 7.75 22.5719 7.75 32 7.75C41.4281 7.75 46.1421 7.75 49.0711 10.6789C52 13.6079 52 18.3219 52 27.75C52 37.1781 52 41.8921 49.0711 44.8211C46.1421 47.75 41.4281 47.75 32 47.75C22.5719 47.75 17.8579 47.75 14.9289 44.8211C12 41.8921 12 37.1781 12 27.75Z" fill="#A7A7A7"/>
<path d="M35.9999 33.75C36.5522 33.75 37.01 34.2021 36.9003 34.7434C36.7064 35.6994 36.2354 36.5855 35.5354 37.2855C34.5978 38.2232 33.326 38.75 31.9999 38.75C30.6738 38.75 29.4021 38.2232 28.4644 37.2855C27.7644 36.5855 27.2934 35.6994 27.0996 34.7434C26.9898 34.2021 27.4476 33.75 27.9999 33.75H35.9999Z" fill="#DFDFDF"/>
<path d="M38.1022 25.5265C37.5687 25.6694 37.242 26.2275 37.5125 26.709C37.7972 27.2158 38.191 27.6581 38.6701 28.0014C39.4223 28.5404 40.3381 28.802 41.2616 28.7414C42.185 28.6809 43.0589 28.3021 43.7343 27.6695C44.4098 27.0369 44.8449 26.1896 44.9657 25.2721C45.0865 24.3546 44.8855 23.4236 44.3968 22.6377C43.9081 21.8519 43.162 21.2598 42.2857 20.9623C41.4094 20.6648 40.4571 20.6804 39.591 21.0064C39.0394 21.214 38.5446 21.5393 38.1384 21.9551C37.7525 22.3502 37.9236 22.9739 38.4019 23.25L38.9092 23.5429C39.6807 23.9884 39.5286 25.1443 38.668 25.3749L38.1022 25.5265Z" fill="#DFDFDF"/>
<path d="M25.8977 25.5265C26.4312 25.6694 26.7579 26.2275 26.4874 26.709C26.2027 27.2158 25.8089 27.6581 25.3299 28.0014C24.5777 28.5404 23.6618 28.802 22.7384 28.7414C21.815 28.6809 20.9411 28.3021 20.2656 27.6695C19.5902 27.0369 19.155 26.1896 19.0342 25.2721C18.9134 24.3546 19.1145 23.4236 19.6032 22.6377C20.0919 21.8519 20.8379 21.2598 21.7142 20.9623C22.5905 20.6648 23.5429 20.6804 24.409 21.0064C24.9605 21.214 25.4554 21.5393 25.8616 21.9551C26.2475 22.3502 26.0763 22.9739 25.598 23.25L25.0907 23.5429C24.3192 23.9884 24.4714 25.1443 25.3319 25.3749L25.8977 25.5265Z" fill="#DFDFDF"/>
</g>
<defs>
<clipPath id="clip0_2071_260">
<rect width="155" height="40" fill="white" transform="translate(12 7.75)"/>
</clipPath>
</defs>
</svg>
