<svg width="64" height="65" viewBox="0 0 64 65" fill="none" xmlns="http://www.w3.org/2000/svg">
<rect y="0.708496" width="64" height="64" rx="32" fill="#FBAD18"/>
<g clip-path="url(#clip0_306_3930)">
<path d="M41.3333 19.3752H40V18.0418C40 17.6882 39.8595 17.3491 39.6095 17.099C39.3594 16.849 39.0203 16.7085 38.6667 16.7085C38.313 16.7085 37.9739 16.849 37.7239 17.099C37.4738 17.3491 37.3333 17.6882 37.3333 18.0418V19.3752H26.6667V18.0418C26.6667 17.6882 26.5262 17.3491 26.2761 17.099C26.0261 16.849 25.687 16.7085 25.3333 16.7085C24.9797 16.7085 24.6406 16.849 24.3905 17.099C24.1405 17.3491 24 17.6882 24 18.0418V19.3752H22.6667C20.8992 19.3773 19.2047 20.0804 17.955 21.3302C16.7052 22.5799 16.0021 24.2744 16 26.0419L16 42.042C16.0021 43.8095 16.7052 45.504 17.955 46.7538C19.2047 48.0035 20.8992 48.7066 22.6667 48.7087H41.3333C43.1008 48.7066 44.7953 48.0035 46.045 46.7538C47.2948 45.504 47.9979 43.8095 48 42.042V26.0419C47.9979 24.2744 47.2948 22.5799 46.045 21.3302C44.7953 20.0804 43.1008 19.3773 41.3333 19.3752ZM18.6667 26.0419C18.6667 24.981 19.0881 23.9636 19.8382 23.2134C20.5884 22.4633 21.6058 22.0419 22.6667 22.0419H41.3333C42.3942 22.0419 43.4116 22.4633 44.1618 23.2134C44.9119 23.9636 45.3333 24.981 45.3333 26.0419V27.3752H18.6667V26.0419ZM41.3333 46.042H22.6667C21.6058 46.042 20.5884 45.6206 19.8382 44.8705C19.0881 44.1203 18.6667 43.1029 18.6667 42.042V30.0419H45.3333V42.042C45.3333 43.1029 44.9119 44.1203 44.1618 44.8705C43.4116 45.6206 42.3942 46.042 41.3333 46.042Z" fill="white"/>
<path d="M32 38.7085C33.1046 38.7085 34 37.8131 34 36.7085C34 35.6039 33.1046 34.7085 32 34.7085C30.8954 34.7085 30 35.6039 30 36.7085C30 37.8131 30.8954 38.7085 32 38.7085Z" fill="white"/>
<path d="M25.333 38.7085C26.4376 38.7085 27.333 37.8131 27.333 36.7085C27.333 35.6039 26.4376 34.7085 25.333 34.7085C24.2284 34.7085 23.333 35.6039 23.333 36.7085C23.333 37.8131 24.2284 38.7085 25.333 38.7085Z" fill="white"/>
<path d="M38.6667 38.7085C39.7713 38.7085 40.6667 37.8131 40.6667 36.7085C40.6667 35.6039 39.7713 34.7085 38.6667 34.7085C37.5622 34.7085 36.6667 35.6039 36.6667 36.7085C36.6667 37.8131 37.5622 38.7085 38.6667 38.7085Z" fill="white"/>
</g>
<defs>
<clipPath id="clip0_306_3930">
<rect width="32" height="32" fill="white" transform="translate(16 16.7085)"/>
</clipPath>
</defs>
</svg>
