<svg width="78" height="79" viewBox="0 0 78 79" fill="none" xmlns="http://www.w3.org/2000/svg">
<rect y="0.708984" width="78" height="78" rx="39" fill="#FBAD18"/>
<g clip-path="url(#clip0_307_4116)">
<path d="M57.968 23.9118V30.2452C57.968 30.6651 57.8012 31.0679 57.5043 31.3648C57.2073 31.6617 56.8046 31.8286 56.3847 31.8286C55.9648 31.8286 55.562 31.6617 55.2651 31.3648C54.9682 31.0679 54.8013 30.6651 54.8013 30.2452V26.1871L46.4097 34.5345C46.1103 34.8222 45.7098 34.9807 45.2946 34.976C44.8794 34.9713 44.4827 34.8036 44.1899 34.5092C43.8972 34.2148 43.7318 33.8171 43.7294 33.4019C43.727 32.9866 43.8878 32.5871 44.1772 32.2893L52.6005 23.9118H48.468C48.0481 23.9118 47.6454 23.745 47.3484 23.4481C47.0515 23.1512 46.8847 22.7484 46.8847 22.3285C46.8847 21.9086 47.0515 21.5058 47.3484 21.2089C47.6454 20.912 48.0481 20.7452 48.468 20.7452L54.8013 20.7452C55.6412 20.7452 56.4466 21.0788 57.0405 21.6727C57.6344 22.2665 57.968 23.072 57.968 23.9118ZM56.5351 47.2488C57.4527 48.1689 57.9679 49.4153 57.9679 50.7147C57.9679 52.0141 57.4527 53.2605 56.5351 54.1806L55.0911 55.8432C42.122 68.2534 10.5678 36.7084 22.7911 23.7013L24.6103 22.1179C25.532 21.2261 26.7674 20.7326 28.0498 20.7438C29.3322 20.7551 30.5587 21.2703 31.4646 22.1781C31.5121 22.2272 34.446 26.0399 34.446 26.0399C35.3163 26.9542 35.8009 28.1686 35.7992 29.4309C35.7974 30.6932 35.3094 31.9063 34.4365 32.8182L32.6014 35.1251C33.6161 37.5905 35.1079 39.8312 36.9912 41.7183C38.8745 43.6054 41.1121 45.1018 43.5755 46.1214L45.8951 44.2768C46.8069 43.4044 48.0196 42.9167 49.2815 42.9149C50.5434 42.9131 51.7575 43.3975 52.6718 44.2673C52.6718 44.2673 56.486 47.2013 56.5351 47.2488ZM54.358 49.5509C54.358 49.5509 50.5691 46.6344 50.52 46.5869C50.1938 46.2635 49.7531 46.082 49.2937 46.082C48.8344 46.082 48.3936 46.2635 48.0674 46.5869C48.0247 46.6281 44.8311 49.1741 44.8311 49.1741C44.6159 49.3454 44.3598 49.4577 44.088 49.4999C43.8161 49.5421 43.538 49.5128 43.281 49.4148C40.0878 48.2273 37.1874 46.3667 34.7767 43.9593C32.366 41.5519 30.5015 38.654 29.3097 35.4623C29.2054 35.2029 29.1717 34.9204 29.2121 34.6437C29.2524 34.367 29.3653 34.1058 29.5393 33.8869C29.5393 33.8869 32.0837 30.6933 32.1264 30.6506C32.4499 30.3244 32.6313 29.8836 32.6313 29.4243C32.6313 28.9649 32.4499 28.5241 32.1264 28.198C32.0789 28.1505 29.1624 24.3599 29.1624 24.3599C28.8316 24.0629 28.3996 23.9036 27.9551 23.9148C27.5105 23.926 27.0871 24.1068 26.7716 24.4201L24.9523 26.0034C16.016 36.7417 43.3649 62.5755 52.7747 53.6835L54.2187 52.021C54.5591 51.7085 54.7642 51.2756 54.7902 50.8143C54.8162 50.3529 54.6612 49.8997 54.358 49.5509Z" fill="#1C1C1C"/>
</g>
<defs>
<clipPath id="clip0_307_4116">
<rect width="38" height="38" fill="white" transform="translate(20 20.709)"/>
</clipPath>
</defs>
</svg>
