<svg width="16" height="17" viewBox="0 0 16 17" fill="none" xmlns="http://www.w3.org/2000/svg">
<path d="M13.3334 0.708496L7.33342 0.708496C6.96476 0.708496 6.66676 1.00716 6.66676 1.37516C6.66676 1.74315 6.96476 2.04182 7.33342 2.04182L13.3334 2.04182C13.4527 2.04182 13.568 2.05782 13.6787 2.08715L0.195498 15.5703C-0.065166 15.831 -0.065166 16.2523 0.195498 16.513C0.325497 16.643 0.496161 16.7083 0.666826 16.7083C0.837491 16.7083 1.00816 16.643 1.13815 16.513L14.6213 3.02981C14.6507 3.1398 14.6667 3.2558 14.6667 3.37513V9.37507C14.6667 9.74307 14.9647 10.0417 15.3333 10.0417C15.702 10.0417 16 9.74307 16 9.37507V3.37513C16 1.90448 14.804 0.708496 13.3334 0.708496Z" fill="#1C1C1C"/>
</svg>
