<svg width="24" height="25" viewBox="0 0 24 25" fill="none" xmlns="http://www.w3.org/2000/svg">
<g clip-path="url(#clip0_2307_741)">
<path d="M12 24.7083C18.6274 24.7083 24 19.3358 24 12.7084C24 6.08104 18.6274 0.708496 12 0.708496C5.37258 0.708496 0 6.08104 0 12.7084C0 19.3358 5.37258 24.7083 12 24.7083Z" fill="#25D366"/>
<path d="M12.3953 5.1084C14.3041 5.10922 16.0959 5.85241 17.4431 7.20117C18.7902 8.54984 19.5317 10.3425 19.531 12.249C19.5294 16.1824 16.3295 19.3832 12.3953 19.3848H12.3923C11.1982 19.3843 10.0243 19.0841 8.98218 18.5156L5.19995 19.5078L6.21265 15.8105C5.58821 14.7284 5.25899 13.5008 5.25952 12.2432C5.26125 8.30911 8.46238 5.10848 12.3953 5.1084ZM12.3982 6.31348C9.12678 6.31348 6.4659 8.97418 6.4646 12.2441C6.46419 13.3647 6.77723 14.4562 7.37085 15.4004L7.51245 15.625L6.91284 17.8135L9.15796 17.2246L9.37476 17.3525C10.2853 17.8929 11.3291 18.1793 12.3933 18.1797H12.3953C15.664 18.1797 18.3244 15.5191 18.3259 12.249C18.3265 10.6643 17.7103 9.17377 16.5906 8.05273C15.4709 6.93189 13.9821 6.31412 12.3982 6.31348ZM10.2107 8.9541C10.3201 8.95959 10.4673 8.91308 10.6121 9.26074C10.7605 9.61736 11.1166 10.4929 11.1619 10.584C11.2064 10.6732 11.2358 10.7775 11.1765 10.8965C11.1171 11.0153 11.0878 11.0903 10.9988 11.1943C10.9097 11.2984 10.8114 11.4269 10.7312 11.5068C10.642 11.5957 10.5492 11.6917 10.6531 11.8701C10.7571 12.0486 11.1144 12.6327 11.6443 13.1055C12.3253 13.7129 12.9006 13.901 13.0789 13.9902C13.2568 14.0793 13.3607 14.065 13.4646 13.9463C13.5686 13.8274 13.9101 13.4257 14.0291 13.2471C14.1479 13.0686 14.267 13.0978 14.4304 13.1572C14.5937 13.2167 15.4688 13.6475 15.6482 13.7373C15.8265 13.8266 15.9454 13.8719 15.99 13.9463C16.0345 14.0209 16.0349 14.3777 15.8865 14.7939C15.7378 15.2102 15.0261 15.5902 14.6833 15.6416C14.3763 15.6875 13.9872 15.7069 13.5603 15.5713C13.3014 15.4891 12.969 15.379 12.5437 15.1953C10.7551 14.423 9.58694 12.622 9.4978 12.5029C9.40842 12.3837 8.7695 11.5364 8.76929 10.6592C8.76929 9.78165 9.22989 9.3494 9.39331 9.1709C9.5566 8.99258 9.75003 8.94831 9.8689 8.94824C9.98766 8.94824 10.1069 8.94889 10.2107 8.9541Z" fill="#FDFDFD"/>
</g>
<defs>
<clipPath id="clip0_2307_741">
<rect width="24" height="23.9998" fill="white" transform="translate(0 0.708496)"/>
</clipPath>
</defs>
</svg>
